<svg width="24" height="24" viewBox="0 0 24 24" fill="none" xmlns="http://www.w3.org/2000/svg">
<path d="M4.25 0.299805H19.75C22.1 0.299805 24 2.1998 24 4.54981V19.4498C24 21.7998 22.1 23.6998 19.75 23.6998H4.25C1.9 23.6998 0 21.7998 0 19.4498V4.54981C0 2.1998 1.9 0.299805 4.25 0.299805Z" fill="#330000"/>
<path d="M11.6002 14.3002H7.88016L7.12015 16.6502C7.10015 16.7402 7.02015 16.8002 6.93016 16.7902H5.05015C4.94015 16.7902 4.91015 16.7302 4.94015 16.6102L8.16015 7.34023C8.19015 7.24023 8.22015 7.13023 8.26015 7.01023C8.30015 6.80023 8.32015 6.58023 8.32015 6.36023C8.31015 6.31023 8.35015 6.26023 8.40015 6.25023H10.9902C11.0702 6.25023 11.1102 6.28023 11.1202 6.33023L14.7702 16.6302C14.8002 16.7402 14.7702 16.7902 14.6702 16.7902H12.5802C12.5102 16.8002 12.4402 16.7502 12.4202 16.6802L11.6002 14.3002ZM8.46015 12.2702H11.0002C10.9402 12.0602 10.8602 11.8102 10.7702 11.5502C10.6802 11.2802 10.5902 10.9902 10.5002 10.6902C10.4002 10.3802 10.3102 10.0802 10.2102 9.77023C10.1102 9.46023 10.0202 9.17023 9.94015 8.88023C9.86015 8.60023 9.79015 8.34023 9.72015 8.10023H9.70015C9.61015 8.53023 9.50015 8.96023 9.36015 9.39023C9.21015 9.87023 9.06015 10.3702 8.90015 10.8702C8.76015 11.3802 8.61015 11.8502 8.46015 12.2702ZM17.0002 8.00023C16.6702 8.01023 16.3502 7.88023 16.1102 7.65023C15.8802 7.40023 15.7602 7.07023 15.7702 6.73023C15.7602 6.39023 15.8902 6.07023 16.1302 5.84023C16.3702 5.61023 16.6902 5.49023 17.0202 5.49023C17.4102 5.49023 17.7102 5.61023 17.9302 5.84023C18.1502 6.08023 18.2702 6.40023 18.2602 6.73023C18.2702 7.07023 18.1502 7.40023 17.9102 7.65023C17.6802 7.89023 17.3402 8.02023 17.0002 8.00023ZM15.8802 16.6802V8.98023C15.8802 8.88023 15.9202 8.84023 16.0102 8.84023H17.9902C18.0802 8.84023 18.1202 8.89023 18.1202 8.98023V16.6802C18.1202 16.7902 18.0802 16.8402 17.9902 16.8402H16.0302C15.9302 16.8402 15.8802 16.7802 15.8802 16.6802Z" fill="#FF9A00"/>
</svg>
