<svg width="24" height="24" viewBox="0 0 24 24" fill="none" xmlns="http://www.w3.org/2000/svg">
<path d="M4.25 0.299805H19.75C22.1 0.299805 24 2.1998 24 4.54981V19.4498C24 21.7998 22.1 23.6998 19.75 23.6998H4.25C1.9 23.6998 0 21.7998 0 19.4498V4.54981C0 2.1998 1.9 0.299805 4.25 0.299805Z" fill="#00005B"/>
<path fill-rule="evenodd" clip-rule="evenodd" d="M5.92019 14.2998H9.64019V14.2498L10.4602 16.6498C10.4802 16.7198 10.5502 16.7698 10.6202 16.7598H12.7102C12.8102 16.7598 12.8402 16.7098 12.8102 16.5998L9.16019 6.39982C9.15019 6.34982 9.10019 6.31982 9.03019 6.31982H6.47019H6.44019C6.39019 6.32982 6.35019 6.37982 6.36019 6.42982C6.36019 6.64982 6.34019 6.86982 6.30019 7.07982L6.30019 7.07983C6.26019 7.19983 6.23019 7.28983 6.20019 7.38982L2.98019 16.6198C2.95019 16.7398 2.98019 16.7998 3.09019 16.7998H4.97019C5.06019 16.8098 5.14019 16.7498 5.16019 16.6598L5.92019 14.2998ZM9.04019 12.3098H6.50019C6.65019 11.8898 6.81019 11.4198 6.94019 10.9098C7.03925 10.6003 7.13448 10.2907 7.22824 9.9859C7.28593 9.79838 7.34306 9.61265 7.40019 9.42982C7.54019 8.99982 7.65019 8.56982 7.74019 8.13982H7.76019C7.79921 8.27361 7.83824 8.41361 7.87899 8.55983C7.91134 8.67591 7.94479 8.79591 7.98019 8.91982C8.06019 9.20982 8.15019 9.49982 8.25019 9.80982C8.30019 9.96482 8.34769 10.1173 8.39519 10.2698C8.44269 10.4223 8.49019 10.5748 8.54019 10.7298C8.63019 11.0298 8.72019 11.3198 8.81019 11.5898C8.90019 11.8498 8.98019 12.0998 9.04019 12.3098ZM15.5302 13.3998H18.7002C18.8342 13.3998 18.9629 13.4105 19.0876 13.4207C19.2049 13.4304 19.3187 13.4398 19.4302 13.4398C19.6602 13.4398 19.8502 13.4298 20.0102 13.4098C20.0664 13.4063 20.1164 13.4028 20.1602 13.3997C20.2413 13.394 20.3013 13.3898 20.3402 13.3898C20.4102 13.3898 20.4702 13.3298 20.4802 13.2598C20.4847 13.2198 20.4891 13.1698 20.4945 13.1099C20.5011 13.0353 20.5091 12.9452 20.5202 12.8398C20.5302 12.6498 20.5402 12.4398 20.5402 12.1998C20.5402 11.7898 20.4802 11.3798 20.3502 10.9798C20.2202 10.5598 20.0102 10.1798 19.7502 9.83983C19.4702 9.48983 19.1102 9.21983 18.7002 9.03983C18.2102 8.81983 17.6802 8.71983 17.1502 8.72983C16.5102 8.72983 15.9502 8.80983 15.4802 9.03983C15.0102 9.26983 14.6002 9.58983 14.2702 9.98983C13.9302 10.3998 13.6802 10.8598 13.5202 11.3598C13.3502 11.8798 13.2702 12.4098 13.2702 12.9498C13.2702 13.4498 13.3402 13.9398 13.4802 14.4098C13.6202 14.8898 13.8502 15.3298 14.1702 15.7198C14.5102 16.1298 14.9402 16.4598 15.4302 16.6698C15.9502 16.8998 16.5902 17.0198 17.3502 17.0198C17.8302 17.0298 18.3002 16.9898 18.7702 16.8998C19.1202 16.8398 19.4502 16.7398 19.7702 16.5998C19.8002 16.5798 19.8202 16.5598 19.8402 16.5298L19.8402 16.5298C19.8502 16.4898 19.8602 16.4498 19.8602 16.4098V14.8798C19.8602 14.7798 19.8302 14.7598 19.7802 14.7998C19.5002 14.9098 19.2002 14.9898 18.8902 15.0298C18.5502 15.0998 18.2002 15.1298 17.8502 15.1398C17.4102 15.1498 16.9702 15.0598 16.5702 14.8898C16.2702 14.7698 16.0202 14.5598 15.8402 14.2898C15.6702 14.0198 15.5702 13.7098 15.5302 13.3998ZM17.6402 11.9398H15.5302C15.5602 11.6898 15.6302 11.4498 15.7502 11.2198C16.0102 10.7198 16.5302 10.4298 17.0802 10.4598C17.6702 10.4398 18.2002 10.8198 18.3802 11.3798C18.4202 11.4998 18.4402 11.6198 18.4402 11.7498V11.8498C18.3702 11.8998 18.2902 11.9198 18.2102 11.9298C18.0902 11.9398 17.9002 11.9398 17.6402 11.9398H17.6402Z" fill="#9999FF"/>
</svg>
