<svg width="24" height="24" viewBox="0 0 24 24" fill="none" xmlns="http://www.w3.org/2000/svg">
<path d="M4.25 0.299805H19.75C22.1 0.299805 24 2.1998 24 4.54981V19.4498C24 21.7998 22.1 23.6998 19.75 23.6998H4.25C1.9 23.6998 0 21.7998 0 19.4498V4.54981C0 2.1998 1.9 0.299805 4.25 0.299805Z" fill="#001E36"/>
<path fill-rule="evenodd" clip-rule="evenodd" d="M5.3999 6.42V16.71C5.3999 16.8 5.4399 16.84 5.5199 16.84H7.4199H7.4599C7.5299 16.83 7.5799 16.77 7.5699 16.7V13.49C7.7599 13.49 7.8999 13.49 7.9999 13.5C8.0999 13.51 8.2599 13.51 8.4999 13.51C9.3199 13.51 10.0699 13.42 10.7499 13.17C11.3999 12.93 11.9599 12.51 12.3599 11.95C12.7599 11.39 12.9599 10.68 12.9599 9.82C12.9599 9.37 12.8799 8.94 12.7299 8.52C12.5699 8.09 12.3199 7.7 11.9999 7.38C11.6199 7.01 11.1599 6.73 10.6599 6.56C10.0999 6.35 9.4199 6.25 8.5999 6.25H8.59988C8.29989 6.25 7.99989 6.25 7.6899 6.26C7.54024 6.26483 7.39524 6.26732 7.2549 6.26974C7.10455 6.27233 6.95955 6.27483 6.8199 6.28C6.68895 6.28485 6.5627 6.28735 6.44001 6.28978C6.30975 6.29235 6.1835 6.29485 6.0599 6.3C5.8299 6.31 5.6699 6.31 5.4999 6.31C5.4299 6.31 5.3999 6.35 5.3999 6.42ZM7.5799 11.6V8.24C7.6499 8.23 7.7899 8.22 7.9899 8.23C8.1799 8.22 8.4099 8.22 8.6699 8.22C9.0799 8.21 9.4799 8.27 9.8499 8.42C10.1399 8.53 10.3799 8.73 10.5499 8.99C10.7099 9.26 10.7899 9.57 10.7799 9.88C10.7799 10.32 10.6799 10.66 10.4699 10.91C10.2499 11.16 9.9699 11.35 9.6499 11.44C9.2799 11.56 8.8899 11.62 8.4999 11.62H7.9699C7.85852 11.62 7.73851 11.6114 7.6099 11.6021C7.59995 11.6014 7.58995 11.6007 7.5799 11.6ZM18.2399 10.65C18.5799 10.72 18.8999 10.83 19.1999 10.99C19.2399 11.01 19.2899 11.01 19.3799 10.99C19.4099 10.97 19.4299 10.93 19.4299 10.89V9.26C19.4299 9.22 19.4199 9.18 19.4099 9.14C19.3899 9.1 19.3499 9.06 19.3099 9.05C19.0399 8.94 18.7499 8.86 18.4499 8.82C18.0399 8.76 17.6199 8.73 17.2099 8.73C16.4999 8.73 15.9099 8.84 15.4399 9.08C15.0099 9.28 14.6399 9.6 14.3899 10C14.1699 10.37 14.0499 10.78 14.0499 11.21C14.0399 11.56 14.1199 11.91 14.2799 12.23C14.4699 12.57 14.7299 12.86 15.0399 13.08C15.4799 13.38 15.9499 13.62 16.4599 13.8C16.9499 13.99 17.2799 14.14 17.4399 14.27C17.5999 14.4 17.6799 14.53 17.6799 14.67C17.6799 14.85 17.5699 15.02 17.4099 15.09C17.2299 15.18 16.9599 15.23 16.5799 15.23C16.1799 15.23 15.7799 15.18 15.3999 15.08C14.9599 14.98 14.5499 14.82 14.1599 14.59C14.1299 14.57 14.0999 14.56 14.0699 14.58C14.0399 14.6 14.0299 14.64 14.0299 14.67V16.41C14.0199 16.49 14.0699 16.56 14.1399 16.6C14.4599 16.75 14.8099 16.86 15.1599 16.92C15.6099 17.01 16.0599 17.05 16.5199 17.05C17.2399 17.05 17.8399 16.94 18.3299 16.73C18.7799 16.55 19.1699 16.24 19.4499 15.84C19.7099 15.45 19.8499 14.98 19.8399 14.51C19.8499 14.15 19.7699 13.8 19.6099 13.48C19.4199 13.14 19.1499 12.86 18.8199 12.65C18.3399 12.35 17.8199 12.1 17.2799 11.92C17.0399 11.82 16.7999 11.71 16.5699 11.59C16.4399 11.52 16.3199 11.43 16.2299 11.32C16.1699 11.24 16.1299 11.15 16.1299 11.06C16.1299 10.97 16.1599 10.87 16.2099 10.79C16.2799 10.69 16.3899 10.62 16.5199 10.59C16.7099 10.54 16.9199 10.51 17.1199 10.52C17.4999 10.52 17.8699 10.57 18.2399 10.65Z" fill="#31A8FF"/>
</svg>
