<svg width="24" height="24" viewBox="0 0 24 24" fill="none" xmlns="http://www.w3.org/2000/svg">
<path d="M4.25 0.299805H19.75C22.1 0.299805 24 2.1998 24 4.54981V19.4498C24 21.7998 22.1 23.6998 19.75 23.6998H4.25C1.9 23.6998 0 21.7998 0 19.4498V4.54981C0 2.1998 1.9 0.299805 4.25 0.299805Z" fill="#00005B"/>
<path fill-rule="evenodd" clip-rule="evenodd" d="M5.7002 6.39998V16.69C5.7002 16.78 5.7402 16.82 5.8202 16.82H7.72019H7.7602C7.83019 16.81 7.88019 16.75 7.87019 16.68V13.47C8.06019 13.47 8.2002 13.47 8.3002 13.48C8.40019 13.49 8.56016 13.49 8.80013 13.49H8.8002C9.6202 13.49 10.3702 13.4 11.0502 13.15C11.7002 12.91 12.2602 12.49 12.6602 11.93C13.0602 11.37 13.2602 10.66 13.2602 9.79998C13.2602 9.34998 13.1802 8.91998 13.0302 8.49998C12.8702 8.06998 12.6202 7.67998 12.3002 7.35998C11.9202 6.98998 11.4602 6.70998 10.9602 6.53998C10.4002 6.32998 9.72019 6.22998 8.9002 6.22998C8.6002 6.22998 8.3002 6.22998 7.9902 6.23998C7.84053 6.24481 7.69553 6.24731 7.55519 6.24972C7.40484 6.25231 7.25984 6.25481 7.12019 6.25998C6.98924 6.26483 6.86299 6.26733 6.74031 6.26976C6.61004 6.27233 6.48379 6.27483 6.3602 6.27998C6.1302 6.28998 5.9702 6.28998 5.8002 6.28998C5.7302 6.28998 5.7002 6.32998 5.7002 6.39998ZM7.8802 11.59V8.22998C7.9502 8.21998 8.0902 8.20998 8.2902 8.21998C8.48019 8.20998 8.71019 8.20998 8.97018 8.20998H8.97019C9.38019 8.19998 9.7802 8.25998 10.1502 8.40998C10.4402 8.51998 10.6802 8.71998 10.8502 8.97998C11.0102 9.24998 11.0902 9.55998 11.0802 9.86998C11.0802 10.31 10.9802 10.65 10.7702 10.9C10.5502 11.15 10.2702 11.34 9.9502 11.43C9.58019 11.55 9.1902 11.61 8.8002 11.61H8.27019C8.15881 11.61 8.03881 11.6014 7.91019 11.5921C7.90024 11.5914 7.89024 11.5907 7.8802 11.59ZM16.4502 8.81998H14.7002C14.6902 8.80998 14.6702 8.80998 14.6702 8.81998C14.6202 8.82998 14.5902 8.87998 14.6002 8.92998C14.601 8.93919 14.6018 8.94839 14.6026 8.95757C14.6217 9.17762 14.6402 9.38919 14.6402 9.60998C14.6452 9.73998 14.6477 9.86998 14.6502 9.99998C14.6527 10.13 14.6552 10.26 14.6602 10.39C14.6702 10.65 14.6702 10.8999 14.6702 11.1399V11.14V16.68V16.72C14.6802 16.8 14.7502 16.85 14.8302 16.84H16.8002C16.8902 16.84 16.9302 16.8 16.9302 16.7V11.6C17.0702 11.44 17.2502 11.32 17.4402 11.23C17.7102 11.11 17.9902 11.02 18.2802 10.96C18.6302 10.88 19.0002 10.85 19.3602 10.86C19.4702 10.86 19.5202 10.83 19.5202 10.75V8.79998V8.75998C19.5102 8.68998 19.4502 8.63998 19.3802 8.64998C18.8502 8.64998 18.3202 8.77998 17.8602 9.03998C17.4502 9.25998 17.0902 9.54998 16.7902 9.89998C16.7902 9.76998 16.7802 9.64998 16.7702 9.53998C16.7602 9.43998 16.7402 9.32998 16.7202 9.22998C16.7102 9.13998 16.6902 9.05998 16.6602 8.97998C16.6302 8.88998 16.5502 8.81998 16.4502 8.81998Z" fill="#9999FF"/>
</svg>
