<svg width="24" height="24" viewBox="0 0 24 24" fill="none" xmlns="http://www.w3.org/2000/svg">
<path d="M11.5669 0.0213156C11.5999 0.0211276 11.633 0.0209395 11.667 0.0207457C11.7731 0.020279 11.8791 0.0200905 11.9851 0.0200587C12.0032 0.0200468 12.0212 0.020035 12.0398 0.0200228C12.572 0.0198396 13.0954 0.0272087 13.6226 0.107209C13.6537 0.111526 13.6849 0.115843 13.717 0.12029C14.8436 0.277171 15.9386 0.605287 16.9745 1.07257C16.9973 1.08272 17.0202 1.09286 17.0437 1.10332C17.4091 1.2663 17.7558 1.46036 18.1008 1.66252C18.1229 1.67546 18.145 1.6884 18.1678 1.70173C18.4693 1.87935 18.7569 2.07286 19.0393 2.27928C19.0668 2.29925 19.0668 2.29925 19.0948 2.31962C19.4298 2.56364 19.7427 2.82863 20.0492 3.10731C20.0905 3.14472 20.132 3.18181 20.1738 3.21856C20.4564 3.46774 20.727 3.73423 20.97 4.02229C20.9964 4.05233 21.0227 4.08232 21.0491 4.11227C21.2373 4.32626 21.4172 4.54405 21.5868 4.77313C21.6001 4.79092 21.6133 4.80871 21.627 4.82704C21.9825 5.3052 22.2896 5.80798 22.579 6.32844C22.5898 6.3477 22.6006 6.36696 22.6117 6.38681C23.2618 7.55005 23.6509 8.8609 23.8594 10.1715C23.8648 10.2046 23.8701 10.2378 23.8756 10.272C23.9572 10.808 23.9828 11.3393 23.9819 11.8813C23.9818 11.9857 23.9824 12.0901 23.9831 12.1945C23.9857 13.2204 23.8247 14.2131 23.5682 15.204C23.5635 15.2223 23.5588 15.2406 23.5539 15.2594C23.5208 15.3856 23.5208 15.3856 23.4907 15.4458C23.65 15.4546 23.8093 15.4635 23.9734 15.4726C23.9432 15.6536 23.9432 15.6536 23.9024 15.7442C23.8933 15.7647 23.8842 15.7851 23.8748 15.8062C23.8648 15.8281 23.8548 15.85 23.8446 15.8726C23.8288 15.9077 23.8288 15.9077 23.8128 15.9436C23.7782 16.0207 23.7434 16.0978 23.7086 16.1748C23.6843 16.2289 23.66 16.2831 23.6358 16.3372C23.5856 16.4494 23.5353 16.5614 23.485 16.6735C23.3815 16.9041 23.2793 17.1352 23.1773 17.3664C23.1456 17.4381 23.1139 17.5099 23.0822 17.5816C22.9831 17.8059 22.8844 18.0304 22.7864 18.2552C22.773 18.2858 22.773 18.2858 22.7594 18.3171C22.7179 18.4122 22.6765 18.5074 22.6352 18.6026C22.6209 18.6356 22.6065 18.6686 22.5922 18.7016C22.5737 18.7443 22.5737 18.7443 22.5548 18.7878C22.5254 18.8513 22.5254 18.8513 22.4985 18.8782C22.2965 18.8765 22.1022 18.8238 21.9086 18.7709C21.8894 18.7988 21.8702 18.8268 21.8505 18.8555C21.6583 19.1329 21.4551 19.3974 21.2382 19.6558C21.2181 19.6799 21.2181 19.6799 21.1976 19.7045C20.8412 20.1305 20.463 20.5581 20.0387 20.9181C19.9879 20.9613 19.9377 21.005 19.8877 21.0491C19.6737 21.2372 19.456 21.417 19.227 21.5865C19.2092 21.5998 19.1914 21.6131 19.1731 21.6267C18.695 21.9823 18.1922 22.2893 17.6717 22.5787C17.6525 22.5895 17.6332 22.6003 17.6133 22.6115C16.4501 23.2615 15.1393 23.6506 13.8287 23.8592C13.7955 23.8645 13.7624 23.8698 13.7282 23.8753C13.162 23.9616 12.601 23.9831 12.0287 23.9815C11.9928 23.9815 11.9569 23.9814 11.921 23.9814C11.4022 23.9804 10.8916 23.9702 10.3779 23.8927C10.3463 23.8881 10.3147 23.8835 10.2822 23.8787C9.09516 23.7015 7.94854 23.3641 6.86502 22.8469C6.8274 22.8289 6.8274 22.8289 6.78902 22.8107C6.24532 22.5496 5.72435 22.2531 5.22926 21.9083C5.21367 21.8975 5.19807 21.8867 5.18201 21.8756C4.71617 21.5518 4.28036 21.1914 3.86166 20.8089C3.83513 20.7849 3.8086 20.7608 3.78206 20.7368C3.56443 20.5394 3.35212 20.3389 3.16079 20.1154C3.10308 20.0491 3.04326 19.985 2.98345 19.9206C2.84177 19.7652 2.71232 19.6017 2.5842 19.4351C2.54833 19.3885 2.51222 19.3421 2.47605 19.2957C2.34275 19.1243 2.21416 18.9503 2.09183 18.7709C2.06048 18.7786 2.02913 18.7864 1.99682 18.7944C1.95531 18.8044 1.9138 18.8145 1.87228 18.8245C1.85166 18.8296 1.83104 18.8348 1.8098 18.84C1.78966 18.8449 1.76953 18.8497 1.74878 18.8547C1.73038 18.8592 1.71199 18.8637 1.69303 18.8683C1.62846 18.8795 1.56729 18.8798 1.50189 18.8782C1.37434 18.6326 1.26203 18.3817 1.15169 18.1281C1.10982 18.0319 1.06775 17.9357 1.02569 17.8396C1.00358 17.789 0.981474 17.7385 0.959381 17.6879C0.848903 17.4351 0.737552 17.1827 0.625999 16.9304C0.59372 16.8574 0.561478 16.7844 0.529244 16.7113C0.435317 16.4986 0.341041 16.286 0.245218 16.0741C0.229795 16.0399 0.214375 16.0057 0.198959 15.9715C0.171313 15.9102 0.143505 15.8491 0.1155 15.788C0.0976832 15.7485 0.0976832 15.7485 0.0795061 15.7082C0.0692677 15.6857 0.0590294 15.6633 0.0484808 15.6402C0.027027 15.5798 0.027027 15.5798 0.027027 15.4726C0.186312 15.4637 0.345597 15.4549 0.509709 15.4458C0.499961 15.4119 0.490213 15.378 0.480169 15.3431C0.329245 14.8098 0.207561 14.2715 0.127586 13.7229C0.123537 13.6953 0.119488 13.6678 0.115317 13.6395C0.0404746 13.0938 0.0168679 12.5486 0.0186471 11.9983C0.018696 11.9667 0.0187449 11.935 0.0187952 11.9025C0.0200804 11.4071 0.0377873 10.9223 0.107474 10.4312C0.111933 10.3981 0.116392 10.365 0.120987 10.3309C0.42346 8.12368 1.35317 6.0219 2.78904 4.31727C2.80048 4.30354 2.81193 4.28982 2.82372 4.27568C3.15927 3.87384 3.51466 3.47431 3.91236 3.13287C3.97365 3.07964 4.0332 3.02474 4.09295 2.96978C4.24296 2.83461 4.40061 2.71072 4.56051 2.58759C4.61418 2.54614 4.66755 2.50433 4.72092 2.46248C5.37142 1.95511 6.07516 1.5495 6.81138 1.17984C6.83298 1.16891 6.85458 1.15799 6.87683 1.14673C8.29237 0.43542 9.98359 0.0273669 11.5669 0.0213156ZM10.5119 1.39436C10.4595 1.40163 10.4071 1.40886 10.3547 1.41604C9.35559 1.56042 8.36481 1.87181 7.45496 2.30609C7.42777 2.31899 7.40059 2.33188 7.37258 2.34516C6.48394 2.7696 5.67107 3.31565 4.93429 3.96866C4.90954 3.9904 4.88479 4.01215 4.85929 4.03455C4.67591 4.19902 4.5008 4.3718 4.32591 4.5452C4.30233 4.56843 4.27876 4.59165 4.25446 4.61558C4.11403 4.75583 3.98485 4.90098 3.86079 5.05589C3.81887 5.10821 3.77634 5.15939 3.73219 5.20983C2.24128 6.91957 1.31912 9.34734 1.30873 11.6194C1.30854 11.6472 1.30836 11.675 1.30816 11.7036C1.30769 11.7929 1.30752 11.8822 1.30747 11.9715C1.30746 12.002 1.30744 12.0326 1.30742 12.0641C1.30786 12.5355 1.32308 12.9948 1.39462 13.4614C1.40174 13.5093 1.40174 13.5093 1.409 13.5582C1.47693 14.0064 1.57125 14.4451 1.6896 14.8826C2.1644 14.7079 2.66407 14.196 2.98408 13.8112C3.03306 13.7532 3.08425 13.6976 3.13592 13.642C3.28652 13.48 3.42939 13.3132 3.56669 13.1396C3.58048 13.1223 3.59428 13.1049 3.60849 13.087C3.83721 12.7986 4.05604 12.5048 4.2639 12.2011C4.27695 12.182 4.29001 12.1629 4.30345 12.1433C4.79181 11.4269 5.22237 10.6816 5.59465 9.89901C5.98873 9.07172 6.47538 8.2889 7.06397 7.5858C7.10449 7.53737 7.14466 7.48866 7.18481 7.43993C7.47551 7.0905 7.79394 6.76935 8.15217 6.48933C8.19911 6.44968 8.24604 6.41002 8.29295 6.37034C8.77729 5.97604 9.33823 5.66239 9.922 5.44352C9.9415 5.43614 9.961 5.42875 9.98109 5.42115C10.6266 5.18077 11.2958 5.08331 11.9818 5.08486C12.0072 5.08489 12.0326 5.08491 12.0587 5.08493C12.8975 5.08749 13.6913 5.24714 14.4538 5.60442C14.4722 5.61288 14.4905 5.62134 14.5094 5.63005C15.0944 5.9025 15.6174 6.2649 16.0896 6.70386C16.1236 6.73301 16.1577 6.76206 16.1918 6.79101C16.4255 6.99531 16.642 7.21721 16.8345 7.46067C16.8869 7.52622 16.9413 7.58947 16.9967 7.65253C17.4569 8.18034 17.8248 8.79663 18.1544 9.41224C18.1722 9.44531 18.1722 9.44531 18.1903 9.47905C18.3271 9.73424 18.4579 9.99109 18.5801 10.2536C19.1346 11.4391 19.9174 12.5625 20.7823 13.5418C20.8026 13.5648 20.8228 13.5878 20.8437 13.6114C20.9032 13.6781 20.9633 13.7441 21.0237 13.81C21.0371 13.8248 21.0506 13.8396 21.0644 13.8549C21.2309 14.0379 21.3962 14.2149 21.5868 14.3731C21.6152 14.3981 21.6436 14.4231 21.672 14.4482C21.8667 14.6197 22.0632 14.772 22.284 14.9094C22.365 14.7636 22.3908 14.598 22.4281 14.4368C22.4344 14.4101 22.4344 14.4101 22.4407 14.3827C22.4982 14.1345 22.5485 13.886 22.5874 13.634C22.5913 13.6086 22.5952 13.5833 22.5993 13.5571C22.6117 13.4717 22.6224 13.3862 22.6326 13.3005C22.6349 13.2814 22.6372 13.2624 22.6396 13.2427C22.6879 12.8329 22.6959 12.4257 22.6946 12.0134C22.6946 11.9808 22.6945 11.9483 22.6945 11.9148C22.6933 11.433 22.6809 10.9616 22.6058 10.4849C22.6013 10.4549 22.5969 10.425 22.5923 10.3942C22.3703 8.93148 21.8414 7.52508 21.0505 6.27481C21.0405 6.25907 21.0306 6.24334 21.0204 6.22713C20.618 5.59618 20.1391 4.99932 19.6024 4.47816C19.5309 4.40704 19.4599 4.33543 19.3894 4.26322C19.2346 4.10521 19.0785 3.95483 18.9047 3.8174C18.8453 3.77039 18.787 3.72278 18.7289 3.67411C17.2879 2.47078 15.487 1.70507 13.6393 1.41447C13.6007 1.40839 13.6007 1.40839 13.5613 1.40219C13.4746 1.38937 13.3878 1.37815 13.3008 1.36754C13.2816 1.36521 13.2625 1.36287 13.2427 1.36046C12.8325 1.31194 12.4247 1.30428 12.0119 1.30553C11.9632 1.30559 11.9632 1.30559 11.9134 1.30565C11.4404 1.3067 10.9798 1.3209 10.5119 1.39436ZM10.6997 9.57313C10.6741 9.59543 10.6486 9.61772 10.6223 9.64069C10.2902 9.93456 9.99935 10.264 9.73429 10.6189C9.72075 10.637 9.70721 10.6552 9.69325 10.6738C9.12465 11.4384 8.64729 12.2636 8.2017 13.1046C7.89268 13.6865 7.54802 14.2428 7.15999 14.7754C7.14849 14.7912 7.137 14.807 7.12516 14.8232C7.05763 14.9156 6.98855 15.0066 6.91865 15.0972C6.90758 15.1116 6.89651 15.126 6.8851 15.1408C6.40252 15.7681 5.86435 16.4074 5.23963 16.8967C5.17821 16.9454 5.1209 16.9965 5.06334 17.0497C4.55102 17.5078 3.93884 17.901 3.32535 18.2078C3.36519 18.3284 3.43248 18.4186 3.51138 18.5161C3.52445 18.5325 3.53752 18.5489 3.55098 18.5657C3.86286 18.9543 4.19465 19.3204 4.54546 19.6742C4.56869 19.6978 4.59191 19.7214 4.61584 19.7457C4.75609 19.8861 4.90124 20.0153 5.05615 20.1394C5.10848 20.1813 5.15966 20.2238 5.21009 20.268C6.91323 21.7531 9.32638 22.6819 11.5895 22.6914C11.6197 22.6916 11.6499 22.6918 11.681 22.692C11.7779 22.6925 11.8748 22.6926 11.9717 22.6927C12.0048 22.6927 12.0379 22.6927 12.0721 22.6927C12.5587 22.6923 13.0338 22.6814 13.5153 22.6055C13.5452 22.6011 13.5751 22.5966 13.6059 22.592C15.8171 22.2565 17.9581 21.2126 19.522 19.6022C19.5931 19.5306 19.6647 19.4596 19.7369 19.3891C19.9199 19.2099 20.0871 19.0257 20.246 18.8245C20.2758 18.7881 20.3056 18.7518 20.3355 18.7155C20.3512 18.6964 20.3668 18.6773 20.383 18.6576C20.4139 18.62 20.4449 18.5824 20.4759 18.5448C20.6147 18.393 20.6147 18.393 20.6751 18.2078C20.6618 18.2008 20.6485 18.1938 20.6348 18.1866C19.9183 17.8085 19.251 17.3425 18.6527 16.7955C18.6145 16.761 18.5762 16.7267 18.5371 16.6932C18.3842 16.5618 18.2413 16.4216 18.0991 16.2787C18.0761 16.2558 18.053 16.2328 18.0293 16.2092C17.8955 16.0753 17.7677 15.9384 17.6449 15.7944C17.6185 15.7641 17.5921 15.7338 17.5656 15.7035C16.8546 14.884 16.2609 13.9677 15.7544 13.0099C15.5938 12.7063 15.4241 12.4092 15.2485 12.114C15.2066 12.0434 15.1652 11.9726 15.1238 11.9017C14.8572 11.4473 14.564 11.0073 14.2393 10.5921C14.2225 10.5705 14.2057 10.5488 14.1884 10.5266C13.6941 9.89909 13.042 9.11154 12.2013 8.98319C11.6099 8.94019 11.1319 9.18512 10.6997 9.57313Z" fill="#7826E7"/>
</svg>
