<svg width="24" height="24" viewBox="0 0 24 24" fill="none" xmlns="http://www.w3.org/2000/svg">
<path d="M9.05588 13.249C9.14119 11.7279 9.88483 10.3839 11.0116 9.43419C12.1142 8.50061 13.595 7.9292 15.2207 7.9292C16.8384 7.9292 18.3192 8.4998 19.4218 9.43419C20.5486 10.3839 21.289 11.7279 21.3775 13.249C21.4628 14.8103 20.8343 16.267 19.7357 17.3454C18.609 18.44 17.0154 19.1321 15.2207 19.1321C13.426 19.1321 11.8244 18.4448 10.7057 17.3454C9.60316 16.267 8.9754 14.8184 9.06393 13.257L9.05588 13.249Z" fill="white"/>
<path d="M12.4278 13.0624C12.4717 12.2807 12.8538 11.59 13.4328 11.102C13.9995 10.6223 14.7605 10.3286 15.5959 10.3286C16.4272 10.3286 17.1882 10.6218 17.7548 11.102C18.3338 11.59 18.7143 12.2807 18.7598 13.0624C18.8036 13.8647 18.4806 14.6133 17.9161 15.1675C17.3371 15.73 16.5182 16.0857 15.5959 16.0857C14.6736 16.0857 13.8506 15.7325 13.2757 15.1675C12.7091 14.6133 12.3865 13.8689 12.432 13.0665L12.4278 13.0624Z" fill="#265787"/>
<path d="M7.46484 14.7169C7.47021 15.0229 7.56782 15.6185 7.71423 16.0817C8.02193 17.066 8.54553 17.9759 9.2693 18.7741C10.0137 19.5972 10.9319 20.2589 11.9907 20.7304C13.1032 21.2225 14.3109 21.4748 15.564 21.4748C16.8172 21.4732 18.0248 21.2167 19.1374 20.718C20.1961 20.2423 21.1143 19.5806 21.8587 18.7534C22.5867 17.947 23.1078 17.0371 23.4138 16.0528C23.5689 15.5565 23.6669 15.0519 23.7062 14.5473C23.7447 14.051 23.7286 13.5506 23.6578 13.0501C23.5197 12.0782 23.1822 11.1642 22.6652 10.337C22.1937 9.57192 21.5816 8.90605 20.8537 8.34357L20.8554 8.34234L13.535 2.71761C13.5284 2.71265 13.523 2.70727 13.516 2.70272C13.0362 2.33381 12.2256 2.33505 11.7003 2.70479C11.1668 3.07867 11.1048 3.69739 11.5804 4.08615L11.5783 4.08822L14.6347 6.57386L5.3291 6.58378H5.31669C4.54743 6.58461 3.80712 7.08836 3.66236 7.72941C3.51182 8.37873 4.03458 8.92052 4.83693 8.92052L4.8357 8.92342L9.55053 8.91432L1.11346 15.3662C1.1027 15.3741 1.09112 15.3823 1.0812 15.3902C0.287118 15.9982 0.0306962 17.0114 0.531131 17.6484C1.03984 18.2977 2.11929 18.3018 2.92164 17.6521L7.5124 13.8885C7.5124 13.8885 7.4454 14.3972 7.45078 14.6991L7.46484 14.7169ZM19.2933 16.4167C18.3462 17.3803 17.0186 17.9304 15.5876 17.9304C14.1525 17.9329 12.8249 17.3928 11.8778 16.4291C11.4145 15.9576 11.0754 15.42 10.8645 14.8451C10.6589 14.2785 10.5791 13.6788 10.6321 13.075C10.6821 12.4835 10.8583 11.9169 11.1408 11.4082C11.417 10.9078 11.7984 10.4528 12.2657 10.0682C13.188 9.31963 14.3584 8.91018 15.5826 8.91018C16.811 8.90853 17.9814 9.31094 18.9037 10.0599C19.371 10.4421 19.7515 10.8954 20.0286 11.3958C20.3111 11.9045 20.4877 12.467 20.5373 13.0626C20.5895 13.6664 20.5096 14.2661 20.3041 14.8327C20.094 15.4117 19.754 15.9494 19.2908 16.4208L19.2933 16.4167Z" fill="#EA7600"/>
</svg>
