<svg width="66" height="66" viewBox="0 0 66 66" fill="none" xmlns="http://www.w3.org/2000/svg" class="cloudflare-logo">
    <path d="M52.6876 31.0281C52.4676 31.0281 52.2506 31.0361 52.0336 31.0431C51.9985 31.045 51.9639 31.0531 51.9316 31.0671C51.8742 31.0866 51.8225 31.1202 51.7813 31.1647C51.7401 31.2092 51.7107 31.2633 51.6956 31.3221L50.7656 34.5711C50.3646 35.9681 50.5136 37.2581 51.1876 38.2051C51.8056 39.0811 52.8336 39.5951 54.0816 39.6551L59.1266 39.9611C59.2766 39.9691 59.4066 40.0411 59.4856 40.1601C59.527 40.2236 59.5531 40.2958 59.562 40.3711C59.5708 40.4464 59.5621 40.5227 59.5366 40.5941C59.496 40.7101 59.4228 40.812 59.3258 40.8876C59.2288 40.9631 59.1121 41.0091 58.9896 41.0201L53.7476 41.3261C50.8996 41.4581 47.8356 43.7821 46.7606 46.6161L46.3826 47.6161C46.3664 47.6575 46.3602 47.7023 46.3647 47.7466C46.3692 47.7909 46.3842 47.8335 46.4084 47.8708C46.4327 47.9082 46.4655 47.9392 46.5041 47.9613C46.5428 47.9835 46.5861 47.9961 46.6306 47.9981H64.6846C64.7896 47.9985 64.8918 47.9645 64.9756 47.9013C65.0594 47.8381 65.1202 47.7491 65.1486 47.6481C65.4693 46.4955 65.6308 45.3044 65.6286 44.1081C65.6286 36.8881 59.8396 31.0361 52.6956 31.0361" fill="#FBAD41"/>
    <path d="M44.808 47.578L45.142 46.403C45.544 45.006 45.395 43.716 44.722 42.769C44.102 41.893 43.075 41.379 41.826 41.319L18.161 41.013C18.0874 41.0117 18.0151 40.9929 17.9501 40.9583C17.8851 40.9238 17.8292 40.8743 17.787 40.814C17.7455 40.7506 17.7192 40.6784 17.7101 40.6031C17.7011 40.5278 17.7096 40.4515 17.735 40.38C17.776 40.2632 17.8499 40.1608 17.9479 40.0852C18.0458 40.0096 18.1636 39.964 18.287 39.954L42.173 39.648C45.009 39.517 48.073 37.192 49.148 34.358L50.51 30.758C50.5654 30.6054 50.5793 30.4407 50.55 30.281C48.998 23.259 42.79 18 35.368 18C28.526 18 22.721 22.462 20.638 28.665C19.2356 27.5985 17.4792 27.1071 15.727 27.291C12.447 27.621 9.80698 30.293 9.48098 33.609C9.39657 34.4372 9.45748 35.2738 9.66098 36.081C4.30098 36.241 0.000976562 40.679 0.000976562 46.133C0.000976562 46.626 0.0359766 47.112 0.106977 47.586C0.121107 47.6972 0.175338 47.7994 0.259485 47.8734C0.343632 47.9474 0.451907 47.9882 0.563977 47.988H44.268C44.3911 47.986 44.5102 47.9442 44.6075 47.8688C44.7048 47.7935 44.7752 47.6886 44.808 47.57" fill="#F6821F"/>
</svg>
