<svg width="121" height="121" viewBox="0 0 121 121" fill="none" xmlns="http://www.w3.org/2000/svg" class="cloudinary-logo">
<path fill-rule="evenodd" clip-rule="evenodd" d="M83.5831 28.8805C90.4562 33.9409 95.5537 41.0445 98.147 49.176C104.435 49.9966 110.213 53.0654 114.414 57.8153C118.614 62.5652 120.954 68.6751 121 75.016C121 85.9714 114.064 95.0525 102.898 98.711L102.397 98.8713V90.7926C109.343 87.8658 113.422 82.0824 113.422 75.016C113.405 70.1675 111.493 65.5181 108.093 62.0608C104.694 58.6035 100.078 56.6125 95.2302 56.5131H92.2232L91.5016 53.6464C89.7802 46.541 85.7327 40.2151 80.0026 35.6747C74.2725 31.1342 67.1889 28.6398 59.8782 28.5883C53.7427 28.5588 47.7264 30.2815 42.5364 33.5539C37.3464 36.8263 33.1985 41.5123 30.5802 47.0611L29.6581 48.9555L27.5532 49.176C22.9164 49.6721 18.5511 51.6065 15.069 54.7082C11.587 57.8099 9.16272 61.9234 8.13605 66.4722C7.10937 71.021 7.53174 75.777 9.34395 80.0736C11.1562 84.3703 14.2674 87.9922 18.2416 90.4318V98.9515H18.1914L17.4397 98.6107C11.6465 95.9475 6.85439 91.5048 3.76095 85.9294C0.667515 80.354 -0.565823 73.9368 0.240447 67.6119C1.04672 61.287 3.85051 55.3844 8.24375 50.7634C12.637 46.1423 18.3904 43.0439 24.6665 41.9192C28.0813 35.5623 33.1637 30.256 39.3676 26.5704C45.5714 22.8848 52.6622 20.9593 59.8782 21.0007C68.413 21.0622 76.7099 23.8202 83.5831 28.8805ZM46.8474 99.6332L45.1835 97.9693C44.0639 96.8459 43.4335 95.3256 43.4295 93.7395V68.6814C43.4321 68.5927 43.4691 68.5086 43.5327 68.4468C43.5964 68.3851 43.6816 68.3506 43.7702 68.3506H46.6169C46.6813 68.3493 46.744 68.3292 46.7972 68.2928C46.8504 68.2564 46.8917 68.2052 46.9162 68.1456C46.9407 68.0859 46.9473 68.0204 46.935 67.9571C46.9228 67.8939 46.8923 67.8355 46.8474 67.7893L35.7115 56.6434C35.6808 56.6122 35.6441 56.5874 35.6037 56.5705C35.5632 56.5536 35.5198 56.5449 35.476 56.5449C35.4322 56.5449 35.3888 56.5536 35.3483 56.5705C35.3079 56.5874 35.2712 56.6122 35.2405 56.6434L24.0946 67.7893C24.0491 67.8361 24.0184 67.8954 24.0065 67.9596C23.9946 68.0238 24.002 68.0901 24.0277 68.1501C24.0535 68.2102 24.0964 68.2612 24.1511 68.2969C24.2058 68.3326 24.2698 68.3513 24.3352 68.3506H27.1417C27.2294 68.3506 27.3135 68.3854 27.3756 68.4475C27.4376 68.5095 27.4724 68.5936 27.4724 68.6814V94.1805C27.4724 95.7755 28.106 97.3052 29.2339 98.433C30.3617 99.5609 31.8914 100.194 33.4864 100.194H46.6169C46.6813 100.193 46.744 100.173 46.7972 100.137C46.8504 100.1 46.8917 100.049 46.9162 99.9894C46.9407 99.9298 46.9473 99.8643 46.935 99.801C46.9228 99.7377 46.8923 99.6794 46.8474 99.6332ZM69.8108 97.9693L71.4847 99.6331C71.5302 99.6799 71.5608 99.7392 71.5727 99.8034C71.5846 99.8676 71.5773 99.9339 71.5515 99.994C71.5258 100.054 71.4829 100.105 71.4282 100.141C71.3735 100.176 71.3094 100.195 71.2441 100.194H58.1437C56.5487 100.194 55.0191 99.5608 53.8912 98.433C52.7634 97.3051 52.1298 95.7755 52.1298 94.1805V75.1263C52.1298 75.0376 52.0953 74.9524 52.0335 74.8888C51.9718 74.8251 51.8876 74.7881 51.799 74.7855H48.9624C48.898 74.7842 48.8353 74.7641 48.7821 74.7277C48.7289 74.6912 48.6875 74.6401 48.6631 74.5804C48.6386 74.5208 48.632 74.4553 48.6443 74.392C48.6565 74.3287 48.6869 74.2704 48.7319 74.2242L59.8677 63.0983C59.8985 63.0671 59.9352 63.0423 59.9756 63.0254C60.016 63.0085 60.0594 62.9998 60.1033 62.9998C60.1471 62.9998 60.1905 63.0085 60.2309 63.0254C60.2714 63.0423 60.308 63.0671 60.3388 63.0983L71.4847 74.2041C71.5302 74.2509 71.5608 74.3102 71.5727 74.3744C71.5846 74.4386 71.5773 74.5049 71.5515 74.565C71.5258 74.625 71.4829 74.6761 71.4282 74.7117C71.3735 74.7474 71.3094 74.7661 71.2441 74.7654H68.3975C68.3089 74.768 68.2248 74.8051 68.163 74.8687C68.1012 74.9323 68.0667 75.0175 68.0667 75.1062V93.7394C68.0681 95.3241 68.6949 96.8442 69.8108 97.9693ZM96.1115 99.6332L94.4476 97.9693C93.328 96.8458 92.6976 95.3256 92.6936 93.7395V81.5211C92.6936 81.4334 92.7284 81.3493 92.7904 81.2873C92.8525 81.2252 92.9366 81.1904 93.0243 81.1904H95.881C95.9475 81.1911 96.0127 81.1717 96.068 81.1348C96.1234 81.0979 96.1663 81.0451 96.1912 80.9834C96.2161 80.9217 96.2218 80.8539 96.2076 80.7889C96.1934 80.7239 96.1599 80.6647 96.1115 80.619L84.9656 69.4832C84.9357 69.4523 84.8999 69.4277 84.8603 69.4109C84.8207 69.3941 84.7781 69.3855 84.7351 69.3855C84.6921 69.3855 84.6495 69.3941 84.6099 69.4109C84.5703 69.4277 84.5345 69.4523 84.5046 69.4832L73.3587 80.619C73.3103 80.6647 73.2768 80.7239 73.2626 80.7889C73.2484 80.8539 73.2541 80.9217 73.279 80.9834C73.3039 81.0451 73.3468 81.0979 73.4021 81.1348C73.4575 81.1717 73.5227 81.1911 73.5892 81.1904H76.3957C76.4835 81.1904 76.5676 81.2252 76.6296 81.2873C76.6917 81.3493 76.7265 81.4334 76.7265 81.5211V94.1805C76.7265 95.7755 77.3601 97.3052 78.488 98.433C79.6158 99.5609 81.1455 100.194 82.7405 100.194H95.881C95.9454 100.193 96.0081 100.173 96.0613 100.137C96.1145 100.1 96.1558 100.049 96.1803 99.9894C96.2048 99.9298 96.2114 99.8643 96.1991 99.801C96.1869 99.7377 96.1564 99.6794 96.1115 99.6332Z" fill="var(--colour-cloudinary)"/>
</svg>
