<svg width="24" height="24" viewBox="0 0 24 24" fill="none" xmlns="http://www.w3.org/2000/svg">
<g clip-path="url(#clip0_100_1366)">
<path d="M8.00006 24C10.2081 24 12.0001 22.208 12.0001 20V15.9999H8.00006C5.79205 15.9999 4 17.792 4 20C4 22.208 5.79205 24 8.00006 24Z" fill="var(--colour-figma-green)"/>
<path d="M4 12C4 9.79199 5.79205 7.99995 8.00006 7.99995H12.0001V15.9999H8.00006C5.79205 16 4 14.208 4 12Z" fill="var(--colour-figma-purple)"/>
<path d="M4 4.00003C4 1.79203 5.79205 0 8.00006 0H12.0001V7.99995H8.00006C5.79205 7.99995 4 6.20803 4 4.00003Z" fill="var(--colour-figma-red)"/>
<path d="M12.0001 0H16.0001C18.2081 0 20.0001 1.79203 20.0001 4.00003C20.0001 6.20803 18.2081 7.99997 16.0001 7.99997L12.0001 7.99995V0Z" fill="var(--colour-figma-light-red)"/>
<path d="M20.0001 12C20.0001 14.208 18.2081 16 16.0001 16C13.792 16 12 14.208 12 12C12 9.79199 13.792 7.99997 16.0001 7.99997C18.2081 7.99997 20.0001 9.79199 20.0001 12Z" fill="var(--colour-figma-blue)"/>
</g>
<defs>
<clipPath id="clip0_100_1366">
<rect width="24" height="24" fill="white"/>
</clipPath>
</defs>
</svg>
