<svg width="697" height="697" viewBox="0 0 697 697" fill="none" xmlns="http://www.w3.org/2000/svg" class="framer-motion-logo">
<circle cx="348.5" cy="348.5" r="348.5" fill="var(--colour-framer-blue)"/>
<path fill-rule="evenodd" clip-rule="evenodd" d="M156.44 446.826L266.691 250H216.471C188.735 250 155.433 269.313 142.088 293.137L56 446.826H156.44ZM563.218 250C535.482 250 512.998 272.031 512.998 299.207C512.998 326.383 535.482 348.413 563.218 348.413C590.954 348.413 613.438 326.383 613.438 299.207C613.438 272.031 590.954 250 563.218 250ZM285.523 250H385.963L275.712 446.826H175.272L285.523 250ZM504.592 250H404.151L293.9 446.826H344.12C371.856 446.826 405.159 427.513 418.503 403.69L504.592 250Z" fill="var(--colour-framer-white)"/>
</svg>
