<svg width="48" height="48" viewBox="0 0 48 48" fill="none" xmlns="http://www.w3.org/2000/svg">
    <path fill-rule="evenodd" clip-rule="evenodd" d="M39.9206 30.1924C41.3321 27.9277 42.3716 25.5287 43.0106 23.0721H43.0201C43.621 20.7595 43.8498 18.4948 43.6877 16.3549C43.3921 12.3725 41.7803 9.26338 39.1481 7.61286C36.5159 5.95274 33.0348 5.85678 29.344 7.33457C27.3603 8.13105 25.4433 9.32096 23.6408 10.8851C21.7239 12.5452 20.0454 14.5316 18.6339 16.8059C17.2224 19.0706 16.1829 21.4696 15.5439 23.9262C14.943 26.2388 14.7141 28.5035 14.8763 30.6434C15.1719 34.6258 16.7837 37.7349 19.4159 39.3854C20.732 40.2107 22.258 40.6521 23.9174 40.7001H24.0128H24.1177C25.7676 40.6521 27.2935 40.2107 28.6096 39.3854C31.2323 37.7349 32.8536 34.6258 33.1493 30.6434C33.3114 28.5035 33.0825 26.2388 32.4817 23.9262C32.3195 23.312 32.1288 22.6979 31.919 22.0933L25.6245 26.0469C25.2526 26.2868 24.7567 26.1717 24.5278 25.7974L23.1068 23.504C22.8779 23.1297 22.9923 22.6307 23.3643 22.4004L33.0634 16.2973C33.464 16.0478 33.9695 16.1822 34.1888 16.6044C37.3074 22.5923 38.1658 28.9737 36.8973 34.1844C38.0036 32.9753 39.0241 31.6414 39.9206 30.1924ZM4.99589 23.0721C5.63487 25.5287 6.67441 27.9181 8.08589 30.1924L8.09543 30.202C8.99191 31.651 10.0028 32.9849 11.1187 34.194C9.69766 28.3692 10.9375 21.0857 15.0098 14.5316C16.5453 12.0558 18.3573 9.89672 20.3219 8.10226C19.7783 7.81438 19.2252 7.55528 18.672 7.33457C14.9812 5.86637 11.5002 5.96233 8.86793 7.61286C6.24524 9.26338 4.62394 12.3725 4.32829 16.3549C4.16616 18.4948 4.38552 20.7595 4.99589 23.0721ZM23.9937 5.28101C29.8399 1.57693 36.4109 0.828435 41.3988 3.96635H41.4084C49.286 8.92752 50.2492 21.6903 43.5447 32.4763C38.6045 40.4314 30.8795 45.0951 24.0032 45.0087C17.127 45.0951 9.40201 40.4314 4.46181 32.4763C-2.24274 21.6807 -1.2795 8.91792 6.59811 3.96635C11.586 0.828435 18.1475 1.57693 23.9937 5.28101ZM41.1127 43.9244L40.6072 42.7729H40.6263C40.6167 42.7537 40.6072 42.7345 40.5881 42.7249C40.569 42.7057 40.5214 42.7057 40.5214 42.7057H39.9682C39.9542 42.7057 39.9454 42.7108 39.9342 42.7173C39.9301 42.7197 39.9256 42.7223 39.9205 42.7249C39.9014 42.7345 39.9014 42.7729 39.9014 42.7729V44.9224C39.9014 44.9416 39.911 44.9608 39.9205 44.9704C39.9301 44.9896 39.9682 44.9896 39.9682 44.9896H40.2925C40.3115 44.9896 40.3306 44.98 40.3402 44.9704C40.3592 44.9608 40.3592 44.9224 40.3592 44.9224V43.3006L40.8838 44.481C40.8933 44.5098 40.9028 44.5289 40.9219 44.5385C40.941 44.5577 40.9887 44.5577 40.9887 44.5577H41.2462C41.2748 44.5577 41.2939 44.5481 41.3129 44.5385C41.3225 44.5289 41.3511 44.481 41.3511 44.481L41.8756 43.3006V44.9224C41.8756 44.9416 41.8852 44.9608 41.8947 44.9704C41.9042 44.9896 41.9424 44.9896 41.9424 44.9896H42.2666C42.2806 44.9896 42.2894 44.9844 42.3007 44.9779C42.3048 44.9755 42.3092 44.9729 42.3143 44.9704C42.3334 44.9608 42.3334 44.9224 42.3334 44.9224V42.7729C42.3334 42.7537 42.3334 42.7345 42.3143 42.7249C42.3048 42.7057 42.2666 42.7057 42.2666 42.7057H41.723C41.6944 42.7057 41.6753 42.7153 41.6563 42.7249C41.6372 42.7345 41.6181 42.7729 41.6181 42.7729L41.1127 43.9244ZM37.46 42.7825V43.0703H37.479C37.479 43.0895 37.4886 43.1087 37.4981 43.1183C37.5076 43.1375 37.5458 43.1375 37.5458 43.1375H38.2039V44.9224C38.2039 44.9364 38.209 44.9453 38.2154 44.9566C38.2178 44.9608 38.2204 44.9652 38.2229 44.9704C38.2325 44.9896 38.2706 44.9896 38.2706 44.9896H38.6044C38.6235 44.9896 38.633 44.9896 38.6521 44.9704C38.6712 44.9608 38.6712 44.9224 38.6712 44.9224V43.1375H39.3292C39.3483 43.1375 39.3674 43.1279 39.3769 43.1183C39.396 43.1087 39.396 43.0703 39.396 43.0703V42.7825C39.396 42.7633 39.3864 42.7441 39.3769 42.7345C39.3674 42.7153 39.3292 42.7153 39.3292 42.7153H37.5267C37.5076 42.7153 37.4886 42.7153 37.479 42.7345C37.46 42.7441 37.46 42.7825 37.46 42.7825Z" fill="var(--colour-godaddy-black)"/>
</svg>
