<svg width="56" height="56" viewBox="0 0 56 56" fill="none" xmlns="http://www.w3.org/2000/svg">
    <path d="M22.9385 17.5C24.8461 17.5136 26.2918 18.0631 27.2353 19.1338C28.129 20.1489 28.5594 21.6154 28.5117 23.4912H28.5107C28.5071 23.6931 28.3378 23.8584 28.1348 23.8584H24.2646C24.0116 23.8582 23.7998 23.6506 23.7998 23.3975C23.7997 22.2565 23.4086 21.7012 22.6094 21.7012C21.8101 21.7012 21.2952 22.1974 21.2803 23.0635C21.2633 24.0298 21.8031 24.908 23.3428 26.417C25.3696 28.3382 26.1812 30.0406 26.1426 32.29C26.0788 35.9279 23.6313 38.2792 19.9072 38.2793C18.0052 38.2793 16.5512 37.7649 15.585 36.751C14.6041 35.721 14.1548 34.2094 14.249 32.2588C14.2536 32.0568 14.4218 31.8926 14.625 31.8926H18.627C18.7359 31.8926 18.8443 31.9454 18.917 32.0361C18.9793 32.1144 19.0049 32.211 18.9893 32.3018C18.9449 33.0057 19.0672 33.5315 19.3408 33.8223C19.5169 34.0107 19.761 34.1064 20.0664 34.1064C20.8054 34.1062 21.2391 33.5778 21.2549 32.6582C21.2684 31.8636 21.0194 31.1666 19.6641 29.7578C17.9131 28.0284 16.3428 26.2418 16.3916 23.4326C16.4201 21.8045 17.0601 20.3147 18.1943 19.2383C19.3933 18.1006 21.0344 17.5001 22.9385 17.5ZM9.44336 17.5654C11.1875 17.5495 12.5571 18.0942 13.5098 19.1797C14.5167 20.3276 15.0289 22.0566 15.0312 24.3193C15.0278 24.5249 14.8586 24.6914 14.6553 24.6914H10.4541C10.3054 24.6914 10.1726 24.5559 10.1748 24.4072C10.1407 22.8425 9.68051 22.0791 8.76758 22.0791C7.15767 22.0794 6.20724 24.2895 5.70312 25.5146C4.99927 27.2256 4.64157 29.083 4.71191 30.9336C4.74484 31.7953 4.88227 33.0067 5.6914 33.5088C6.40903 33.9539 7.43374 33.6588 8.05371 33.166C8.67358 32.6732 9.17178 31.8207 9.38183 31.043C9.41133 30.9351 9.41415 30.851 9.38574 30.8135C9.35624 30.7749 9.27434 30.7656 9.21191 30.7656H8.13281C8.01711 30.7655 7.9022 30.7122 7.83301 30.626C7.77528 30.5533 7.75303 30.4634 7.77344 30.375L8.51172 27.1377C8.54816 26.9722 8.69631 26.847 8.8789 26.8242V26.8164H15.959C15.976 26.8164 15.9929 26.8169 16.0088 26.8203C16.1927 26.8442 16.3228 27.0166 16.3193 27.2051H16.3203V27.2139L15.583 30.4453C15.5433 30.628 15.363 30.7625 15.1543 30.7627H14.2646C14.199 30.7628 14.1403 30.8067 14.1221 30.8701C13.3011 33.685 12.1888 35.6197 10.7207 36.7812C9.47163 37.7703 7.93226 38.2314 5.87597 38.2314C4.0274 38.2314 2.78174 37.6307 1.72461 36.4453C0.328012 34.8783 -0.250116 32.3134 0.0996072 29.2227C0.730939 23.4204 3.70815 17.5656 9.44336 17.5654ZM40.1689 17.8779C40.372 17.8781 40.5346 18.044 40.5312 18.2471L40.5059 37.5947C40.5194 37.6879 40.4947 37.779 40.4346 37.8506C40.3676 37.9311 40.266 37.9766 40.1582 37.9766H35.9287C35.7255 37.9766 35.5631 37.8106 35.5664 37.6074L35.6562 35.7305C35.6608 35.4557 35.655 35.4502 35.3769 35.4502H31.377C31.0863 35.4502 31.0661 35.475 30.9639 35.7441L30.1328 37.7627C30.059 37.9068 29.9095 37.9765 29.6836 37.9766H25.4971C25.2427 37.9766 25.0597 37.7217 25.1562 37.4844C25.1572 37.4833 25.1598 37.481 25.1602 37.4805V37.4766L33.8311 18.1689C33.889 18.0532 33.9778 17.8781 34.1787 17.8779H40.1689ZM49.041 17.876C53.7305 17.876 56.0717 20.0241 55.998 24.2627C55.9117 29.2293 52.9164 32.8802 48.4062 33.7217C47.766 33.8408 47.1145 33.8871 46.4629 33.8838L44.2842 33.874C44.2106 33.8743 44.1495 33.9341 44.1484 34.0078C44.1473 34.0577 44.1745 34.1033 44.2187 34.126C44.3062 34.1726 44.3949 34.219 44.4834 34.2656L45.1689 34.627L45.8584 34.9883C45.9287 35.0257 46.0008 35.0641 46.0723 35.1016C46.224 35.1823 46.2831 35.3151 46.249 35.4863C46.2439 35.5111 45.7715 37.6644 45.7666 37.6865C45.727 37.8704 45.5804 37.9764 45.3672 37.9766H41.3926C41.2768 37.9766 41.1621 37.923 41.0928 37.8369C41.0339 37.7633 41.0132 37.6745 41.0322 37.585C41.0322 37.5827 45.458 18.1699 45.458 18.1699C45.5023 17.9679 45.6904 17.8779 45.8584 17.8779H49.0381L49.041 17.876ZM52.2715 35.6143C52.9254 35.6143 53.4373 36.1172 53.4375 36.7949C53.4375 37.4728 52.9255 37.9766 52.2715 37.9766C51.6164 37.9764 51.0996 37.4727 51.0996 36.7949C51.0998 36.1173 51.6177 35.6144 52.2715 35.6143ZM52.2715 35.8379C51.7198 35.838 51.3779 36.2155 51.3779 36.791C51.378 37.371 51.7199 37.7469 52.2715 37.7471C52.8232 37.7471 53.16 37.3677 53.1602 36.791C53.1602 36.2142 52.8233 35.8379 52.2715 35.8379ZM52.3682 36.1309C52.6519 36.1309 52.8281 36.2628 52.8281 36.5068C52.8281 36.6771 52.727 36.7903 52.5703 36.8232V36.8291C52.8927 36.8824 52.7759 37.386 52.8486 37.4053V37.4248H52.4639C52.3958 37.3715 52.5169 36.9701 52.2393 36.9697H52.1309V37.4248H51.7578V36.1309H52.3682ZM52.1309 36.3936V36.6953H52.2578C52.385 36.6953 52.458 36.6461 52.458 36.5439C52.4578 36.433 52.3849 36.3936 52.2578 36.3936H52.1309ZM36.168 23.1426C36.1498 23.0677 36.0908 23.0739 36.042 23.1748C36.008 23.2451 35.9753 23.3179 35.9492 23.3916L32.9492 30.8916C32.9323 30.9379 32.921 30.9755 32.9131 31.0039C32.8972 31.065 32.9387 31.1259 33.001 31.1318C33.0259 31.1341 33.0571 31.1348 33.0957 31.1348L33.0937 31.1357H33.0986L35.5039 31.1641C35.7832 31.1402 35.7959 31.1289 35.8242 30.8428C35.8268 30.7886 36.1829 23.224 36.168 23.1426ZM46.9307 22.1934C46.8568 22.1934 46.796 22.2535 46.7949 22.3262C46.7939 22.376 46.8201 22.4215 46.8643 22.4453C46.8643 22.4453 48.7031 23.4247 48.8291 23.4951C48.9278 23.5496 48.9292 23.6435 48.8975 23.8047C48.8864 23.8566 47.6374 29.3938 47.6396 29.4033C47.6453 29.4102 47.6797 29.4316 47.8701 29.4316H47.9561C50.0428 29.3461 51.1806 26.854 51.2227 24.4355C51.2465 23.0389 50.7418 22.2217 49.8369 22.1934H46.9307Z" fill="var(--colour-gsap-black)"/>
</svg>
