<svg width="24" height="24" viewBox="0 0 24 24" fill="none" xmlns="http://www.w3.org/2000/svg">
<path d="M18.5751 0H5.42057C2.42725 0 0 2.4272 0 5.42044V18.5741C0 21.5678 2.42725 23.9946 5.42057 23.9946H18.5745C21.5684 23.9946 23.9952 21.5673 23.9952 18.5741V5.42044C23.9952 2.42658 21.5678 0 18.5745 0H18.5751ZM15.7295 19.4846H13.5379L15.364 8.07527L11.3463 19.4846H9.15467L11.1635 8.78898L6.96306 19.4846H4.77147L6.96306 9.50206L4.77147 4.51047H6.96306L11.1635 8.43213L9.15467 4.51047H11.3463L15.364 7.71903L13.5379 4.51047H15.7295L19.7472 7.00595L15.7295 19.4853V19.4846Z" fill="#FFDD33"/>
<path d="M13.5383 4.51025L15.3644 7.71883L11.3473 4.51025H9.15569L11.1646 8.43192L6.96407 4.51025H4.77246L6.96407 9.50185L4.77246 19.4844H6.96407L11.1646 8.78876L9.15569 19.4844H11.3473L15.3644 8.07568L13.5383 19.4844H15.7299L19.7476 7.00575L15.7299 4.51025H13.5383Z" fill="#1C1C1E"/>
</svg>
