<svg width="128" height="128" viewBox="0 0 128 128" fill="none" xmlns="http://www.w3.org/2000/svg" class="netlify-logo">
<path d="M34.5932 101.051H33.3846L27.3516 95.0179V93.8094L36.5745 84.5866H42.9641L43.816 85.4385V91.8281L34.5932 101.051Z" fill="var(--colour-netlify-light-green)"/>
<path d="M27.3516 32.816V31.6074L33.3846 25.5744H34.5932L43.816 34.7972V41.1868L42.9641 42.0388H36.5745L27.3516 32.816Z" fill="var(--colour-netlify-light-green)"/>
<path d="M35.8412 68.4491H0.73307L0 67.716V58.9192L0.73307 58.1861H35.8412L36.5743 58.9192V67.716L35.8412 68.4491Z" fill="var(--colour-netlify-light-green)"/>
<path d="M127.277 68.4491H92.1686L91.4355 67.716V58.9192L92.1686 58.1861H127.277L128.01 58.9192V67.716L127.277 68.4491Z" fill="var(--colour-netlify-light-green)"/>
<path d="M58.9424 34.0642V7.73307L59.6755 7H68.4723L69.2054 7.73307V34.0642L68.4723 34.7972H59.6755L58.9424 34.0642Z" fill="var(--colour-netlify-light-green)"/>
<path d="M58.9424 118.902V92.5711L59.6755 91.838H68.4723L69.2054 92.5711V118.902L68.4723 119.635H59.6755L58.9424 118.902Z" fill="var(--colour-netlify-light-green)"/>
<path d="M80.4595 81.6047H71.6825L70.9494 80.8717V60.3259C70.9494 56.6705 69.513 53.8372 65.1047 53.7382C62.8361 53.6787 60.2406 53.7382 57.4669 53.8471L57.0508 54.2731V80.8618L56.3177 81.5948H47.5407L46.8076 80.8618V45.7636L47.5407 45.0305H67.294C74.9714 45.0305 81.1926 51.2517 81.1926 58.9291V80.8717L80.4595 81.6047Z" fill="var(--colour-netlify-dark-green)"/>
</svg>