<svg width="24" height="24" viewBox="0 0 24 24" fill="none" xmlns="http://www.w3.org/2000/svg" class="react-logo">
    <path d="M12 13.9102C13.1046 13.9102 14 13.0147 14 11.9102C14 10.8056 13.1046 9.91016 12 9.91016C10.8954 9.91016 10 10.8056 10 11.9102C10 13.0147 10.8954 13.9102 12 13.9102Z" fill="var(--colour-react)"/>
    <path d="M12 16.4102C17.5228 16.4102 22 14.3954 22 11.9102C22 9.42487 17.5228 7.41016 12 7.41016C6.47715 7.41016 2 9.42487 2 11.9102C2 14.3954 6.47715 16.4102 12 16.4102Z" stroke="var(--colour-react)"/>
    <path d="M8.10323 14.1603C10.8647 18.9432 14.848 21.8131 17.0003 20.5705C19.1527 19.3279 18.6589 14.4432 15.8975 9.66025C13.136 4.87733 9.15266 2.00736 7.00035 3.25C4.84803 4.49264 5.34181 9.37733 8.10323 14.1603Z" stroke="var(--colour-react)"/>
    <path d="M8.10323 9.66025C5.34181 14.4432 4.84803 19.3279 7.00035 20.5705C9.15266 21.8131 13.136 18.9432 15.8975 14.1603C18.6589 9.37733 19.1527 4.49264 17.0003 3.25C14.848 2.00736 10.8647 4.87733 8.10323 9.66025Z" stroke="var(--colour-react)"/>
</svg>
