<svg width="411" height="411" viewBox="0 0 411 411" fill="none" xmlns="http://www.w3.org/2000/svg" class="sass-logo">
    <g>
        <path fill-rule="evenodd" clip-rule="evenodd" d="M205.44 0C318.9 0 410.88 91.98 410.88 205.44C410.88 318.9 318.9 410.88 205.44 410.88C91.98 410.88 0 318.89 0 205.44C0 91.99 91.98 0 205.44 0Z" fill="var(--colour-sass-pink)"/>
        <path d="M334.3 87.93C325 51.44 264.5 39.45 207.24 59.79C173.16 71.9 136.28 90.9 109.75 115.71C78.2104 145.21 73.1804 170.88 75.2604 181.61C82.5704 219.46 134.44 244.21 155.76 262.56V262.67C149.47 265.76 103.46 289.05 92.6904 312.86C81.3304 337.98 94.5004 356 103.22 358.43C130.24 365.95 157.96 352.43 172.86 330.2C187.24 308.75 186.04 281.06 179.79 267.28C188.41 265.01 198.46 263.99 211.23 265.48C247.27 269.69 254.34 292.19 252.99 301.61C251.64 311.03 244.08 316.21 241.55 317.77C239.02 319.33 238.25 319.88 238.46 321.04C238.77 322.73 239.94 322.67 242.09 322.3C245.06 321.8 261.01 314.64 261.7 297.26C262.57 275.19 241.42 250.5 203.97 251.15C188.55 251.42 178.85 252.88 171.84 255.49C171.32 254.9 170.8 254.31 170.25 253.73C147.1 229.03 104.3 211.56 106.11 178.35C106.77 166.28 110.97 134.49 188.35 95.93C251.74 64.34 302.49 73.04 311.26 92.3C323.79 119.82 284.14 170.97 218.31 178.35C193.23 181.16 180.02 171.44 176.74 167.82C173.28 164.01 172.77 163.84 171.47 164.55C169.37 165.72 170.7 169.08 171.47 171.09C173.44 176.21 181.5 185.28 195.25 189.79C207.35 193.76 236.79 195.94 272.41 182.17C312.29 166.74 343.44 123.82 334.29 87.95L334.3 87.93ZM164.61 273.87C167.6 284.93 167.27 295.24 164.18 304.57C163.84 305.61 163.46 306.63 163.05 307.65C162.64 308.66 162.2 309.66 161.72 310.65C159.34 315.59 156.14 320.21 152.23 324.48C140.29 337.5 123.62 342.43 116.47 338.28C108.75 333.8 112.62 315.44 126.45 300.82C141.34 285.08 162.76 274.96 162.76 274.96L162.73 274.9C163.35 274.57 163.97 274.23 164.61 273.88V273.87Z" fill="var(--colour-sass-white)"/>
    </g>
</svg>
