<svg width="200" height="200" viewBox="0 0 200 200" fill="none" xmlns="http://www.w3.org/2000/svg" class="strapi-logo">
    <g clip-path="url(#clip0_197_1697)">
        <path d="M0 69.3333C0 36.6493 6.67572e-06 20.3073 10.154 10.1536C20.307 0 36.649 0 69.333 0H130.667C163.351 0 179.693 0 189.846 10.1536C200 20.3073 200 36.6493 200 69.3333V130.667C200 163.351 200 179.693 189.846 189.846C179.693 200 163.351 200 130.667 200H69.333C36.649 200 20.307 200 10.154 189.846C6.67572e-06 179.693 0 163.351 0 130.667V69.3333Z" fill="#4945FF"/>
        <path fill-rule="evenodd" clip-rule="evenodd" d="M138 60.6665H70.667V94.9998H105V129.333H139.334V61.9998C139.334 61.2635 138.737 60.6665 138 60.6665Z" fill="white"/>
        <path d="M104.999 95H103.666V96.3333H104.999V95Z" fill="white"/>
        <path fill-rule="evenodd" clip-rule="evenodd" d="M37.9421 94.9998H70.6661V60.6665L37.4711 93.8618C37.0511 94.2817 37.3481 94.9998 37.9421 94.9998ZM70.666 95H103.666C104.402 95 104.999 95.597 104.999 96.3333V129.333H71.999C71.263 129.333 70.666 128.736 70.666 128V95ZM105 129.333H139.333L106.138 162.528C105.718 162.948 105 162.651 105 162.057V129.333Z" fill="#9593FF"/>
    </g>
</svg>
