<svg width="113" height="113" viewBox="0 0 113 113" fill="none" xmlns="http://www.w3.org/2000/svg" class="supabase-logo">
<path d="M65.7074 110.284C62.8479 113.885 57.05 111.912 56.9811 107.314L55.9736 40.0627H101.193C109.384 40.0627 113.952 49.5228 108.859 55.9374L65.7074 110.284Z" fill="url(#paint0_linear_197_1716)"/>
<path d="M65.7074 110.284C62.8479 113.885 57.05 111.912 56.9811 107.314L55.9736 40.0627H101.193C109.384 40.0627 113.952 49.5228 108.859 55.9374L65.7074 110.284Z" fill="url(#paint1_linear_197_1716)" fill-opacity="0.2"/>
<path d="M47.3168 2.07103C50.1763 -1.53037 55.9743 0.442938 56.0432 5.041L56.4847 72.2922H11.8309C3.64013 72.2922 -0.927994 62.8321 4.16526 56.4175L47.3168 2.07103Z" fill="#3ECF8E"/>
<defs>
<linearGradient id="paint0_linear_197_1716" x1="55.9736" y1="54.974" x2="96.1633" y2="71.8295" gradientUnits="userSpaceOnUse">
<stop stop-color="#249361"/>
<stop offset="1" stop-color="#3ECF8E"/>
</linearGradient>
<linearGradient id="paint1_linear_197_1716" x1="38.1556" y1="30.578" x2="56.4842" y2="65.0806" gradientUnits="userSpaceOnUse">
<stop/>
<stop offset="1" stop-opacity="0"/>
</linearGradient>
</defs>
</svg>
