<svg width="26" height="26" viewBox="0 0 26 26" fill="none" xmlns="http://www.w3.org/2000/svg">
<path fill-rule="evenodd" clip-rule="evenodd" d="M0.92688 0.80229C0.997466 0.734347 1.09892 0.709196 1.19307 0.736302L7.10412 2.43813C7.13002 2.43799 7.15613 2.44151 7.18171 2.44889C7.20717 2.45624 7.23105 2.46711 7.25281 2.48094L18.9107 5.83733C18.9344 5.83777 18.9583 5.84129 18.9817 5.84804C19.005 5.85476 19.0269 5.86442 19.0471 5.8766L24.9585 7.57851C25.0527 7.60564 25.1253 7.68101 25.1489 7.77621C25.1725 7.8714 25.1435 7.97194 25.0728 8.03992L7.23576 25.1977C7.1651 25.2657 7.06356 25.2908 6.96937 25.2636C6.87519 25.2363 6.80268 25.1609 6.77917 25.0658L3.82039 13.0877C3.81842 13.0816 3.81665 13.0754 3.8151 13.0691C3.81351 13.0627 3.81216 13.0563 3.81105 13.0499L0.850786 1.06577C0.827292 0.970657 0.856295 0.870232 0.92688 0.80229ZM18.3653 6.25135L13.375 4.81461L14.6203 9.8612L18.3653 6.25135ZM14.0801 9.96236L12.8431 4.94935L9.11596 8.53734L14.0801 9.96236ZM8.72929 8.14786L12.4642 4.55237L7.48876 3.11992L8.72929 8.14786ZM6.56386 2.85364L1.49735 1.39496L2.76273 6.5176L6.56386 2.85364ZM2.96859 7.35101L8.04369 8.80788L4.23432 12.4751L2.96859 7.35101ZM8.42632 9.20125L9.69284 14.3346L4.61419 12.8711L8.42632 9.20125ZM10.508 14.5695L14.3121 10.9026L15.5774 16.0303L10.508 14.5695ZM9.44696 14.8348L4.46241 13.3985L5.70757 18.4393L9.44696 14.8348ZM5.91382 19.2742L7.19792 24.4727L11.0649 20.7529L5.91382 19.2742ZM11.6924 20.1494L10.4527 15.1246L15.4262 16.5578L11.6924 20.1494ZM14.8451 10.7721L19.9249 12.2304L16.1104 15.8996L14.8451 10.7721ZM20.5496 11.6294L19.2882 6.51707L24.3495 7.97423L20.5496 11.6294ZM10.201 14.1032L8.95736 9.06273L13.9448 10.4945L10.201 14.1032ZM6.95329 3.24046L8.19691 8.28094L3.20942 6.84922L6.95329 3.24046ZM6.15311 18.772L9.89697 15.1632L11.1406 20.2037L6.15311 18.772ZM19.9969 11.6801L15.0094 10.2484L18.7533 6.63961L19.9969 11.6801Z" fill="black"/>
</svg>
