<svg width="601" height="206" viewBox="0 0 601 206" fill="none" xmlns="http://www.w3.org/2000/svg">
    <g clip-path="url(#clip0_154_864)">
        <path d="M28.1999 111.1C35.4999 111.1 43.7999 114.2 48.1999 120.3H48.6999V112.7H68.5999V175.3C68.5999 196.1 51.4999 205.9 34.4999 205.9C17.9999 205.9 1.8999 196.5 1.6999 178.9H21.3999C21.8999 186.8 27.5999 190.4 34.1999 190.4C40.7999 190.4 47.4999 186.4 47.4999 176.3V166.7H46.9999C42.4999 172 35.0999 174.9 28.1999 174.9C11.4999 174.9 0.399902 159 0.399902 142.7C0.499902 126.6 11.5999 111.1 28.1999 111.1ZM225.4 112.6V148C225.4 153.3 229.5 157.5 234.7 157.5C239.8 157.5 244 153.2 244 148V112.6H265V147.7C265 165.7 252.7 176.6 234.6 176.6C216.9 176.6 204.2 166 204.2 147.7V112.6H225.4ZM567.5 111C585.9 111 600.5 124.7 600.5 143.9C600.5 145.7 600.3 147.2 600.2 148.2V148.5H556C556.8 156.5 561.8 161 567.9 161C571.3 161 574.8 159.6 577.8 156.3L578.2 155.8H598.6C593.3 169.9 580.4 176.5 567.5 176.5C551 176.5 534.5 165.6 534.5 143.8C534.5 124.7 549.1 111 567.5 111ZM112.1 110.4C131.2 110.4 146.9 123.9 146.9 143.4C146.9 162.9 131.3 176.4 112.1 176.4C92.9999 176.4 77.5999 163 77.5999 143.4C77.5999 123.8 92.9999 110.4 112.1 110.4ZM415.9 74.8001V175H396V166.7H395.5C390.1 172.8 382.5 176.2 374.9 176.2C357.8 176.2 346.4 160.6 346.4 143.6C346.4 126.6 357.8 111.1 374.9 111.1C381.5 111.1 389.4 113.6 394.2 119.5H394.7V74.7001H415.9V74.8001ZM185.3 73.0001C189.2 73.0001 193.3 73.5001 196.7 74.3001V91.4001C195.1 91.0001 193.9 90.8001 192.5 90.8001C186.8 90.8001 181.9 93.1001 181.9 100.7V112.8H194.8V129.9H181.9V175H160.8V129.8H151.6V112.7H160.8V96.2001C160.8 80.7001 171.9 73.0001 185.3 73.0001ZM315 111C326.7 111 337.5 119.2 337.5 135.3V175H316.4V139.6C316.4 133.4 312.2 129.2 306.9 129.2C301.6 129.2 297.4 133.5 297.4 139.6V175H276.3V112.7H296.2V120.5H296.7C301.5 114.1 309 111 315 111ZM503.8 111C515 111 525.6 119.4 525.6 135.1V175.1H504.5V139C504.5 133.2 500.7 129.3 495.9 129.3C491 129.3 487.2 133.2 487.2 139V175H466V138.9C466 133.1 462.2 129.2 457.4 129.2C452.5 129.2 448.7 133.1 448.7 138.9V175H427.6V112.7H447.5V120.5H448C452.2 114.2 459.2 111 466 111C472.5 111 479.3 114.4 483.4 121.8H483.9C489.1 114.3 496.6 111 503.8 111ZM381 129.7C373.3 129.7 366.9 136 366.9 143.8C366.9 151.5 373.2 157.9 381 157.9C388.7 157.9 395.1 151.5 395.1 143.8C395.1 136 388.8 129.7 381 129.7ZM112.2 129.2C104.6 129.2 98.3999 135.5 98.3999 143.4C98.3999 151.3 104.6 157.6 112.2 157.6C119.8 157.6 126 151.3 126 143.4C126 135.5 119.8 129.2 112.2 129.2ZM34.4999 129.7C27.0999 129.7 21.0999 135.7 21.0999 143.1C21.0999 150.5 27.0999 156.5 34.4999 156.5C41.8999 156.5 47.8999 150.5 47.8999 143.1C47.8999 135.7 41.8999 129.7 34.4999 129.7ZM567.6 126.5C562 126.5 557.3 130.1 555.7 137.2H579.1C577.8 130.2 573.2 126.5 567.6 126.5ZM590.1 91.7001L594 103.1L597.9 91.7001H600.5V105.2H598.7V97.2001C598.7 96.9001 598.7 96.5001 598.7 95.8001C598.7 95.2001 598.7 94.5001 598.7 93.7001L594.8 105.1H593L589.1 93.7001V94.1001C589.1 94.4001 589.1 94.9001 589.1 95.6001C589.1 96.3001 589.1 96.8001 589.1 97.1001V105.1H587.3V91.6001H590.1V91.7001ZM585.8 91.7001V93.3001H581.2V105.2H579.3V93.3001H574.7V91.7001H585.8ZM300.5 59.4001C324.2 59.4001 344.9 72.3001 356 91.5001H244.9C256 72.3001 276.7 59.4001 300.5 59.4001ZM364.3 28.7001C368.4 24.6001 375.1 24.6001 379.3 28.7001C383.4 32.8001 383.4 39.5001 379.3 43.7001L363.4 59.6001C359.3 63.7001 352.6 63.7001 348.4 59.6001L348 59.2001C344.3 55.1001 344.4 48.6001 348.4 44.6001L364.3 28.7001ZM222.2 28.3001C226.3 24.6001 232.8 24.7001 236.8 28.7001L252.7 44.6001C256.8 48.7001 256.8 55.4001 252.7 59.6001C248.6 63.7001 241.9 63.7001 237.7 59.6001L221.8 43.7001C217.7 39.6001 217.7 32.9001 221.8 28.7001L222.2 28.3001ZM300.3 0.100098H300.8C306.4 0.300098 310.9 5.00009 310.9 10.7001V33.2001C310.9 39.0001 306.1 43.8001 300.3 43.8001C294.5 43.8001 289.7 39.0001 289.7 33.2001V10.7001C289.8 4.80009 294.5 0.100098 300.3 0.100098Z" fill="var(--colour-gofundme-green)"/>
    </g>
</svg>