<svg width="800" height="800" viewBox="0 0 800 800" fill="none" xmlns="http://www.w3.org/2000/svg">
    <g clip-path="url(#clip0_268_1882)">
        <path d="M400 0C179.07 0 0 179.09 0 400C0 620.91 179.07 800 400 800C620.93 800 800 620.92 800 400C800 179.08 620.93 0 400 0Z" fill="var(--colour-hp-white)"/>
        <path d="M400 770.47C396.31 770.47 392.64 770.4 388.99 770.3L464.7 562.22H568.89C587.17 562.22 607.26 548.16 613.5 530.99L695.64 305.36C709.07 268.42 687.92 238.2 648.61 238.2H504.06L382.78 571.49H382.73L313.97 760.41C150.86 721.62 29.5298 575 29.5298 400C29.5298 225 143.96 86.8503 299.97 43.2003L229.01 238.19H228.99L111.04 562.2H189.56L289.86 286.87H348.86L248.56 562.2H327.04L420.52 305.34C433.97 268.4 412.8 238.18 373.54 238.18H307.54L383.35 29.9203C388.87 29.6803 394.41 29.5303 400 29.5303C604.6 29.5303 770.47 195.4 770.47 400C770.47 604.6 604.6 770.47 400 770.47ZM624.15 286.7H565.17L482.55 513.37H541.55L624.17 286.7H624.15Z" fill="var(--colour-hp-blue)"/>
    </g>
    <defs>
        <clipPath id="clip0_268_1882">
            <rect width="800" height="800" fill="var(--colour-hp-white)"/>
        </clipPath>
    </defs>
</svg>
