<svg width="577" height="54" viewBox="0 0 577 54" fill="none" xmlns="http://www.w3.org/2000/svg">
    <path d="M57.04 49.2C51.39 49.2 48.24 43.85 48.24 34.17C48.24 24.49 51.39 19.14 57.04 19.14C62.69 19.14 65.84 24.42 65.84 34.17C65.84 43.92 62.69 49.2 57.04 49.2ZM57.04 15.11C45.53 15.11 39.15 23.69 39.15 34.17C39.15 44.65 45.53 53.23 57.04 53.23C68.55 53.23 74.93 44.65 74.93 34.17C74.93 23.69 68.55 15.11 57.04 15.11ZM137.03 15.11C131.6 15.11 128.6 17.46 126.91 20.46H126.47V15.84H117.82V52.5H126.47V28.82C126.47 23.4 129.26 20.24 133.73 20.24C138.2 20.24 139.96 23.1 139.96 27.43V52.5H148.61V27.35C148.61 19.8 144.65 15.11 137.03 15.11ZM168.26 15.11C160.27 15.11 154.26 18.48 154.26 25.67C154.26 31.76 158.44 35.06 163.13 36.23L170.46 38.06C174.35 39.01 176.11 40.41 176.11 43.49C176.11 47.23 173.47 49.36 168.85 49.36C163.86 49.36 161.3 46.94 160.49 40.86L152.72 43.06C153.16 49.37 159.03 53.25 167.9 53.25C177.8 53.25 183.15 48.63 183.15 41.3C183.15 34.41 178.38 31.55 173.4 30.3L166.36 28.54C162.84 27.66 161.3 26.05 161.3 23.7C161.3 20.77 163.79 19.01 167.53 19.01C171.93 19.01 174.64 21.43 175.01 26.05L182.34 23.85C181.46 18.72 176.4 15.13 168.26 15.13M204.62 49.22C198.97 49.22 195.82 43.87 195.82 34.19C195.82 24.51 198.97 19.16 204.62 19.16C210.27 19.16 213.42 24.44 213.42 34.19C213.42 43.94 210.27 49.22 204.62 49.22ZM204.62 15.13C193.11 15.13 186.73 23.71 186.73 34.19C186.73 44.67 193.11 53.25 204.62 53.25C216.13 53.25 222.51 44.67 222.51 34.19C222.51 23.71 216.13 15.13 204.62 15.13ZM246.85 15.13C241.42 15.13 238.42 17.48 236.73 20.48H236.29V15.86H227.64V52.52H236.29V28.84C236.29 23.42 239.08 20.26 243.55 20.26C248.02 20.26 249.78 23.12 249.78 27.45V52.52H258.43V27.37C258.43 19.82 254.47 15.13 246.85 15.13ZM375.37 49.22C369.72 49.22 366.57 43.87 366.57 34.19C366.57 24.51 369.72 19.16 375.37 19.16C381.02 19.16 384.17 24.44 384.17 34.19C384.17 43.94 381.02 49.22 375.37 49.22ZM375.37 15.13C363.86 15.13 357.48 23.71 357.48 34.19C357.48 44.67 363.86 53.25 375.37 53.25C386.88 53.25 393.26 44.67 393.26 34.19C393.26 23.71 386.88 15.13 375.37 15.13ZM455.36 15.13C449.93 15.13 446.93 17.48 445.24 20.48H444.8V15.86H436.15V52.52H444.8V28.84C444.8 23.42 447.59 20.26 452.06 20.26C456.53 20.26 458.29 23.12 458.29 27.45V52.52H466.94V27.37C466.94 19.82 462.98 15.13 455.36 15.13ZM486.59 15.13C478.6 15.13 472.59 18.5 472.59 25.69C472.59 31.78 476.77 35.08 481.46 36.25L488.79 38.08C492.68 39.03 494.44 40.43 494.44 43.51C494.44 47.25 491.8 49.38 487.18 49.38C482.19 49.38 479.63 46.96 478.82 40.88L471.05 43.08C471.49 49.39 477.36 53.27 486.23 53.27C496.13 53.27 501.48 48.65 501.48 41.32C501.48 34.43 496.71 31.57 491.73 30.32L484.69 28.56C481.17 27.68 479.63 26.07 479.63 23.72C479.63 20.79 482.12 19.03 485.86 19.03C490.26 19.03 492.97 21.45 493.34 26.07L500.67 23.87C499.79 18.74 494.73 15.15 486.59 15.15M522.95 49.24C517.3 49.24 514.15 43.89 514.15 34.21C514.15 24.53 517.3 19.18 522.95 19.18C528.6 19.18 531.75 24.46 531.75 34.21C531.75 43.96 528.6 49.24 522.95 49.24ZM522.95 15.15C511.44 15.15 505.06 23.73 505.06 34.21C505.06 44.69 511.44 53.27 522.95 53.27C534.46 53.27 540.84 44.69 540.84 34.21C540.84 23.73 534.46 15.15 522.95 15.15ZM565.18 15.15C559.75 15.15 556.75 17.5 555.06 20.5H554.62V15.88H545.97V52.54H554.62V28.86C554.62 23.44 557.41 20.28 561.88 20.28C566.35 20.28 568.11 23.14 568.11 27.47V52.54H576.76V27.39C576.76 19.84 572.8 15.15 565.18 15.15ZM34.02 1.17001H24.93V39.07C24.93 45.23 22.58 48.89 17.01 48.89C11.44 48.89 9.09 45 9.09 38.33V31.29L0 33.56V36.71C0 46.31 4.77 53.65 17.01 53.65C29.25 53.65 34.02 46.32 34.02 36.71V1.17001ZM88.71 1.17001H80.06V52.49H88.71V28.81C88.71 23.39 91.5 20.23 95.97 20.23C100.44 20.23 102.2 23.09 102.2 27.42V52.49H110.85V27.34C110.85 19.79 106.89 15.1 99.27 15.1C93.84 15.1 90.84 17.45 89.15 20.45H88.71V1.17001ZM352.35 1.17001H343.26V39.07C343.26 45.23 340.91 48.89 335.34 48.89C329.77 48.89 327.42 45 327.42 38.33V31.29L318.33 33.56V36.71C318.33 46.31 323.1 53.65 335.34 53.65C347.58 53.65 352.35 46.32 352.35 36.71V1.17001ZM407.04 1.17001H398.39V52.49H407.04V28.81C407.04 23.39 409.83 20.23 414.3 20.23C418.77 20.23 420.53 23.09 420.53 27.42V52.49H429.18V27.34C429.18 19.79 425.22 15.1 417.6 15.1C412.17 15.1 409.17 17.45 407.48 20.45H407.04V1.17001ZM286.95 48.31C279.91 48.31 275.59 42.59 275.59 36.51C275.59 32.7 277.28 29.18 280.06 27.2L296.63 45.31C293.55 47.14 290.1 48.32 286.95 48.32M303.08 39.3L288.71 23.46C291.28 22.43 293.77 22.07 295.82 22.07C301.76 22.07 305.42 25.52 305.42 31.46C305.42 34.1 304.69 36.81 303.07 39.3M286.72 21.34L283.57 17.82C280.78 14.74 279.98 12.83 279.98 10.56C279.98 6.31001 282.69 3.89001 286.94 3.89001C291.19 3.89001 293.83 6.38001 293.83 10.93C293.83 15.11 291.78 19.07 286.72 21.34ZM287.16 0.0100098C277.04 0.0100098 272.06 5.66001 272.06 12.69C272.06 16.5 273.67 20.32 277.93 24.93L278 25.08C270.82 28.53 267.52 34.1 267.52 39.82C267.52 47.37 273.31 53.68 282.26 53.68C287.39 53.68 293.4 51.55 298.83 47.74L303.23 52.51H314.74V52.14L305.36 41.8C309.32 37.11 311.59 31.98 311.59 27.5C311.59 21.93 307.85 18.19 301.99 18.19C298.91 18.19 295.46 19.07 293.19 19.95L293.04 19.66C298.61 16.65 300.96 13.87 300.96 9.98001C300.96 4.41001 295.97 0.0100098 287.18 0.0100098" fill="var(--colour-jj-red)"/>
</svg>
