<svg width="284" height="43" viewBox="0 0 284 43" fill="none" xmlns="http://www.w3.org/2000/svg">
    <g>
        <path d="M26.1222 19.0993L26.0144 19.3695C27.7882 20.1475 31.7559 23.2359 31.7559 29.4468C31.7559 35.2948 26.8219 41.1964 19.0724 41.1964C9.42494 41.1964 6.10024 35.5602 6.10024 30.3787C6.10024 23.7414 10.7417 19.3165 10.7417 13.2712C10.7417 9.06182 7.55744 4.90652 3.29444 4.15112L3.13284 4.42133C4.91284 6.30963 5.50674 8.14502 5.50674 10.088C5.50674 16.6175 0.00244141 21.2585 0.00244141 28.7595C0.00244141 35.668 4.83334 42.7014 18.8036 42.7014C31.2569 42.7014 37.8249 36.6052 37.8249 30.109C37.8248 24.551 33.8303 19.8408 26.1222 19.0993Z" fill="url(#paint0_linear_154_907)"/>
        <path fill-rule="evenodd" clip-rule="evenodd" d="M22.4739 -0.00439453L18.966 33.4009H18.6424L15.1345 -0.00439453H22.4739ZM238.091 19.299L237.412 11.9508H213.371L212.692 19.299H214.01L216.086 14.2671H222.995V39.3469L218.842 40.3054V41.7829H231.941V40.3054L227.788 39.3469V14.2671H234.696L236.773 19.299H238.091ZM179.184 41.7828V40.3052L175.63 39.3069L165.007 11.0722L161.533 11.9508L151.389 38.9475L151.269 39.3069L147.715 40.3054V41.7829H157.459V40.3054L153.706 39.4666L156.621 31.5993H167.723L170.559 39.3868L166.405 40.3052V41.7828H179.184ZM162.212 16.5434L166.884 29.2829H157.499L162.212 16.5434ZM272.444 42.7015C269.568 42.7015 266.254 41.9426 263.897 40.8245L263.059 33.596H264.297L266.613 38.9075C268.73 40.2254 270.447 40.7845 272.244 40.7845C275.998 40.7845 278.953 38.8275 278.953 35.433C278.953 32.917 277.516 31.08 274.121 29.3228L271.126 27.7654C266.374 25.2894 264.057 22.4538 264.057 19.0993C264.057 14.1073 267.851 11.0322 273.961 11.0322C276.038 11.0322 279.273 11.5514 280.95 12.1504L281.669 19.0993H280.391L277.955 13.8677C276.557 13.2687 275.159 12.9891 273.842 12.9891C270.487 12.9891 268.091 14.6663 268.091 17.5816C268.091 19.9777 269.488 21.4954 272.883 23.2925L276.397 25.1296C281.629 27.8852 283.466 30.2413 283.466 34.195C283.466 39.187 278.873 42.7015 272.444 42.7015ZM257.035 40.3052V41.7828H243.936V40.3052L248.13 39.3468V14.3868L243.936 13.4283V11.9507H257.035V13.4283L252.842 14.3868V39.3468L257.035 40.3052ZM211.937 41.7828V40.3451L207.664 39.2669L199.717 27.2062L199.757 27.1954C200.899 26.8888 206.666 25.3404 206.666 19.8181C206.666 15.2654 203.231 11.791 194.725 11.791C190.879 11.791 187.011 11.8773 184.963 11.923C184.225 11.9395 183.723 11.9507 183.543 11.9507V13.4283L187.017 14.3868V39.3468L183.543 40.3052V41.7828H195.803V40.3052L191.77 39.3468V28.0849H195.244L204.11 41.7828H211.937ZM191.77 14.0674C198.159 14.0674 201.834 14.946 201.834 20.1376C201.834 23.9715 198.679 25.9283 193.687 25.9283H191.77V14.0674ZM147.049 14.4268L136.626 42.3021H133.95L123.407 14.4268L120.093 13.4284V11.9508H132.193V13.4284L128.559 14.3469L136.586 36.1119L144.653 14.267L141.379 13.4284V11.9508H150.324V13.4284L147.049 14.4268ZM102.936 42.7005C111.044 42.7005 118.392 36.6702 118.392 26.0872C118.392 18.699 112.8 11.0312 102.896 11.0312C94.8293 11.0312 87.521 17.1815 87.521 26.8859C87.521 36.5104 94.7495 42.7005 102.936 42.7005ZM102.297 12.8293C108.607 12.8293 113.2 19.8981 113.2 27.6455C113.2 34.4745 110.364 40.9442 103.615 40.9441C96.4269 40.9441 92.6328 32.7174 92.6328 25.8085C92.6328 18.8996 95.5879 12.8293 102.297 12.8293ZM82.8143 11.9508V13.4284L79.5396 14.3869V36.711C79.5396 38.2685 79.6194 41.703 79.6993 42.2621H78.3415L59.0125 17.382V39.4664L62.6467 40.3051V41.7827H53.4614V40.3051L56.7361 39.3467V14.866C56.0572 14.3069 54.7393 13.7878 53.9007 13.5881L53.8977 13.5875C53.697 13.5474 53.3001 13.4681 52.9822 13.4284V11.9508H60.7697L77.2233 33.3563V14.267L73.5891 13.4284V11.9508H82.8143Z" fill="var(--colour-novartis-blue)"/>
    </g>
    <linearGradient id="paint0_linear_154_907" x1="0.00234141" y1="23.4262" x2="37.8248" y2="23.4262" gradientUnits="userSpaceOnUse">
        <stop offset="0.3" stop-color="var(--colour-novartis-gradient-1)"/>
        <stop offset="0.7011" stop-color="var(--colour-novartis-gradient-2)"/>
    </linearGradient>
</svg>