<svg width="1505" height="355" viewBox="0 0 1505 355" fill="none" xmlns="http://www.w3.org/2000/svg">
    <g clip-path="url(#clip0_154_874)">
        <path d="M111.3 100.5C135.8 79.2999 162.2 75.8999 177.5 75.8999C193.3 75.8999 209 80.2999 218.5 84.7999C241.9 95.5999 257.1 112.2 262.3 130C262.6 130.9 261.5 131.5 260.8 130.9C244 114.7 225.2 113.8 216.8 114.1C179.4 116.3 166.3 144.4 163.3 152.4C163 153.1 163.8 153.9 164.5 153.5C184.3 144.1 207.5 150.7 219.1 168.2C219.5 168.8 219 169.7 218.3 169.6C212.4 169.1 193.2 169.1 180.2 187.7C148.1 232.1 213.4 315.9 297.6 270.2C298.1 270 298.5 270.6 298.1 270.9C277.4 288.9 248.6 306 203.2 304.9C129.5 301.5 76.4 238.6 76 177.3C76 145.7 89.6 119.8 111.3 100.5Z" fill="var(--colour-ocean-light-blue)"/>
        <path fill-rule="evenodd" clip-rule="evenodd" d="M0 177.6C0.2 113.8 33.3 56.1999 88.9 23.3999C171.1 -23.9001 283.6 1.09988 333.5 92.5999C352.7 132.7 354.9 195.5 317.4 233.5C296.4 255.7 272.2 263.6 261.6 264.5C260.8 264.6 260.3 263.6 260.9 263C294.5 229.8 303.4 186.3 293.2 147.1C286 119.4 269.7 96.2999 248.2 80.5999C220.3 60.2999 183.5 51.8999 147.4 61.2999C88 76.1999 42.9 139.4 62.1 209.6C83.1 290.5 166.3 339 247.2 317.9C286.9 307.5 318.7 282.3 338.4 249.7C338.7 249.2 339.4 249.6 339.2 250.1C317.9 297.4 276.3 334.9 222.3 349C113.5 377.3 2 298.2 0 177.6ZM529.1 75.3001C470.7 75.3001 425.5 121.1 425.5 177.7C425.5 233.7 470.7 280.3 529.1 280.3C587.5 280.3 632.7 234.3 632.7 177.7C632.7 121.1 587.5 75.3001 529.1 75.3001ZM592.9 177.8C592.9 212.9 566.3 242.8 529.1 242.8C492 242.8 465.3 212.9 465.3 177.8C465.3 142.7 492.2 113 529.1 113C566 113 592.9 142.7 592.9 177.8ZM756.4 75.1001C698.6 75.1001 652.8 121.1 652.8 177.7C652.8 234.3 698.7 280.3 756.4 280.3C792.3 280.3 823 262.8 843.2 234.6C843.8 233.8 843.6 232.6 842.7 232.1L812.6 214C811.9 213.6 810.9 213.8 810.4 214.4C796.5 231 780.3 242.8 756.4 242.8C720.1 242.8 692.6 213.6 692.6 177.7C692.6 141.8 720 112.7 756.4 112.7C780.3 112.7 796.5 124.4 810 141C810.5 141.7 811.5 141.8 812.2 141.4L842.3 123.3C843.1 122.8 843.4 121.6 842.8 120.8C823 92.6001 792.3 75.1001 756.4 75.1001ZM958.3 75.3001C900.7 75.3001 858.7 122.6 858.7 177.1C858.7 231.4 897.7 280.3 963.4 280.3C1000.6 280.3 1025.8 264.4 1044.1 241.5C1044.7 240.7 1044.6 239.6 1043.8 239L1019.3 219.8C1018.6 219.3 1017.6 219.4 1017 220C1002.2 235.5 987 244.7 962.3 244.7C926.8 244.7 902.7 221.9 897.5 190.2H1056.1C1057 190.2 1057.7 189.5 1057.8 188.6C1057.85 187.532 1057.92 186.442 1057.98 185.365C1058.14 182.506 1058.3 179.734 1058.3 177.7C1058.3 119.7 1018.7 75.3001 958.3 75.3001ZM959.1 111.1C992.6 111.1 1014.7 130.7 1018.7 160.6H898.3C904.8 130.3 929.2 111.1 959.1 111.1ZM1246.4 103.8C1230 86.2001 1206.6 75.3001 1179.7 75.3001C1125.6 75.3001 1078.7 119.8 1078.7 177.2C1078.7 234.6 1125.6 279.2 1179.7 279.2C1206.6 279.2 1230 268.3 1246.4 250.7V273.8C1246.4 274.7 1247.2 275.5 1248.1 275.5H1283.8C1284.7 275.5 1285.5 274.8 1285.5 273.8V80.7001C1285.5 79.8001 1284.7 79.0001 1283.8 79.0001H1248.1C1247.2 79.0001 1246.4 79.8001 1246.4 80.7001V103.8ZM1246.3 177.2C1246.3 213.3 1218.1 242.2 1182.1 242.2C1147.4 242.2 1118.5 212.9 1118.5 177.2C1118.5 141.5 1146.2 112.4 1182.1 112.4C1218 112.4 1246.3 141.1 1246.3 177.2ZM1364.5 273.8V173.1C1364.5 131.7 1383.3 112.9 1416.7 112.9C1447.8 112.9 1465.6 131 1465.6 168.4V273.8C1465.6 274.7 1466.4 275.5 1467.3 275.5H1503.2C1504.1 275.5 1504.9 274.8 1504.9 273.8V165C1504.9 99.3001 1467.5 75.3001 1425.1 75.3001C1396.2 75.3001 1376.4 86.4001 1364.5 102.2V80.7001C1364.5 79.8001 1363.7 79.0001 1362.8 79.0001H1326.9C1326 79.0001 1325.2 79.8001 1325.2 80.7001V273.8C1325.2 274.7 1326 275.5 1326.9 275.5H1362.8C1363.7 275.5 1364.5 274.8 1364.5 273.8Z" fill="var(--colour-ocean-dark-blue)"/>
    </g>
</svg>