<svg width="98" height="32" viewBox="0 0 98 32" fill="none" xmlns="http://www.w3.org/2000/svg">
    <g clip-path="url(#clip0_154_866)">
        <path d="M32.0261 15.0937L32.9676 13.0906H20.8737L19.8821 15.0937H24.5895L19.7319 24.8139H22.8568L27.7144 15.0937H32.0261Z" fill="var(--colour-takeda-red)"/>
        <path d="M78.7591 23.1062C78.7591 23.1062 78.1632 23.4017 77.8677 23.1062C77.5722 22.8157 77.8176 22.325 77.8176 22.325L80.3966 17.0017H77.7725L77.3769 17.6877C75.8395 16.3707 72.965 17.0517 71.2323 18.8596C70.2909 19.786 69.6949 20.9628 69.4996 22.2298C69.0539 22.5253 68.6082 22.7657 68.1125 22.961C68.1125 22.961 67.5165 23.2564 67.2211 22.961C66.9256 22.6655 67.171 22.1797 67.171 22.1797L71.7331 12.9453H69.109L66.7303 17.5876C65.1929 16.2705 62.3184 16.9516 60.5857 18.7594C60.2402 19.0999 59.9397 19.4905 59.6943 19.9312C59.6943 19.9813 59.6442 19.9813 59.6442 20.0314L59.494 20.3218C58.0567 22.7657 56.324 23.1563 56.324 23.1563C52.6082 24.233 52.1625 22.4702 52.1625 22.4702C56.324 20.9578 57.9115 19.15 57.7613 17.7829C57.611 16.4157 55.678 16.3156 55.678 16.3156C52.5081 16.1203 49.7788 18.3187 49.1378 20.417C48.9425 21.053 48.8924 21.689 48.9876 22.32C48.3916 22.6605 47.7006 22.956 47.0045 23.1012C45.9628 23.4417 45.8126 22.956 45.7175 22.6154C45.6173 22.2749 45.1215 19.6859 45.1215 19.6859L49.5334 16.8514H46.8092L43.489 18.9046C42.7478 19.1951 43.0433 18.4139 43.0433 18.4139L45.7675 12.9904H43.1434L38.7315 21.7841C37.9854 22.2248 37.2442 22.6154 36.453 22.956C36.453 22.956 35.8571 23.2514 35.5616 22.956C35.2661 22.6605 35.5115 22.1747 35.5115 22.1747L38.0905 16.8965H35.4614L35.0658 17.5826C33.5284 16.2655 30.704 16.9466 28.9212 18.7544C27.1384 20.5622 26.6927 23.006 27.9297 24.1278C28.9212 25.0542 30.6539 24.8589 32.2414 23.8323C32.2414 23.8323 32.637 23.4918 32.8373 23.8824C33.0377 24.273 33.9791 25.1995 36.0073 24.4182C36.6032 24.1729 37.1992 23.8824 37.7901 23.5869L37.2442 24.6636H39.8683L41.1553 22.0746L42.2971 21.3434C42.2971 21.3434 42.6427 21.048 42.7929 21.6389C42.9932 22.4702 43.2386 23.3015 43.5841 24.1278C43.7844 24.4233 44.2301 25.0542 46.063 24.5184C47.2048 24.1779 48.3416 23.7873 49.4833 23.3466C50.0793 24.1779 51.2661 24.7638 53.1992 24.7638C55.2824 24.7638 57.3106 24.0326 58.9481 22.7106C58.9982 23.2464 59.2436 23.7372 59.5941 24.1278C60.5857 25.0542 62.3184 24.8589 63.8558 23.8323C63.8558 23.8323 64.2514 23.4918 64.4517 23.8824C64.652 24.273 65.5935 25.1995 67.6217 24.4182C68.3178 24.1729 68.9588 23.8323 69.6048 23.4417C69.7049 23.7372 69.9003 23.9776 70.1006 24.2229C71.0921 25.1494 72.8248 24.9541 74.3622 23.9275C74.3622 23.9275 74.7578 23.5869 74.9582 23.9776C75.1585 24.3682 76.0999 25.2946 78.1281 24.5134C80.1613 23.7322 80.8023 22.951 80.8023 22.951L80.3065 22.0696C79.9109 22.5103 79.365 22.8007 78.7691 23.0962L78.7591 23.1062ZM33.4633 21.5438C32.5719 22.8157 31.2799 23.4017 30.5888 22.961C29.8927 22.5203 30.0931 21.1031 30.9844 19.8361C31.8758 18.5641 33.1628 17.9782 33.8589 18.4189C34.555 18.8596 34.4048 20.3218 33.4633 21.5438ZM51.9973 20.6624C52.3929 19.4405 53.2843 18.4639 54.4761 17.9281C54.4761 17.9281 55.022 17.7328 55.3175 17.9782C55.3175 17.9782 55.7131 18.3688 55.2173 19.0549C54.5713 20.0314 53.6799 20.7625 52.6383 21.2032C52.5882 21.2533 51.5967 21.694 51.9923 20.6674L51.9973 20.6624ZM65.1278 21.5438C64.2364 22.8157 62.9494 23.4017 62.2533 22.961C61.5572 22.5203 61.7575 21.1031 62.6489 19.8361C63.5403 18.5641 64.8273 17.9782 65.5234 18.4189C66.2145 18.8596 66.0693 20.3218 65.1278 21.5438ZM75.7344 21.5938C74.843 22.8658 73.556 23.4517 72.8599 23.011C72.1638 22.5704 72.3641 21.1531 73.2555 19.8862C74.1469 18.6192 75.4339 18.0283 76.13 18.469C76.8261 18.9096 76.6258 20.3269 75.7344 21.5938Z" fill="var(--colour-takeda-red)"/>
        <path d="M48.527 0C16.9577 0 0.206543 22.0795 0.206543 22.0795L7.09731 26.6717C7.83846 24.964 8.77994 23.2513 9.82156 21.6889C9.82156 22.1296 9.87164 22.5202 9.92172 22.9609C11.1135 32.2404 20.2779 32 20.2779 32H76.9765C76.9765 32 86.2459 32.2454 87.4328 22.9609C87.4829 22.5703 87.533 22.1797 87.533 21.739C88.5746 23.3014 89.466 24.9139 90.2071 26.5765L97.0478 22.0344C97.0979 22.0845 80.0963 0.00500782 48.527 0.00500782V0ZM86.0957 22.8106C86.0957 22.8106 84.8588 29.9418 76.8763 29.9418H20.2779C12.3505 29.9418 11.2087 22.7606 11.2087 22.7606C10.9132 20.8576 11.2588 19.5355 11.8547 18.6592C17.6037 11.2376 28.9013 1.22191 48.527 1.22191C68.1527 1.22191 79.7508 11.3327 85.4497 18.8094C86.0957 19.6407 86.3411 21.0078 86.0957 22.8156V22.8106Z" fill="var(--colour-takeda-red)"/>
    </g>
</svg>
