<svg width="333" height="188" viewBox="0 0 333 188" fill="none" xmlns="http://www.w3.org/2000/svg">
    <g clip-path="url(#clip0_154_913)">
        <path d="M321.6 11.0601V143.74L166.24 175.98L11.1001 143.76V11.0601H321.6Z" fill="var(--colour-wickes-blue)"/>
        <path fill-rule="evenodd" clip-rule="evenodd" d="M0 152.84V0H332.63V152.45L166.24 187.44L0 152.84ZM166.24 175.98L321.6 143.74V11.06H11.1V143.76L166.24 175.98ZM90.7199 124.61L107.42 63.97H91.6299L83.0499 108.28H82.8799L73.9599 63.97H59.0999L50.1999 108.28H50.0499L41.4399 63.97H25.6699L42.0699 124.61H58.0999L66.3999 82.84H66.5999L74.8899 124.61H90.7199ZM122.97 63.97H108.51V75.02H122.97V63.97ZM108.51 80.54H122.97V124.61H108.51V80.54ZM157.17 96.65C157.06 92.92 153.78 90.31 150.14 90.31C142.05 90.31 140.78 97.18 140.78 103.3C140.78 108.99 143.23 114.84 149.34 114.84C154.35 114.84 156.89 111.96 157.57 107.28H171.61C170.31 119.1 161.12 125.88 149.44 125.88C136.18 125.88 126.33 116.81 126.33 103.29C126.33 89.77 135.25 79.24 149.44 79.24C160.37 79.24 170.15 85.04 171.15 96.65H157.17ZM203.07 124.61H220.48L202.32 97.18L218.45 80.54H201.73L188.55 95.22V63.97H174.1V124.61H188.55V110.5L192.31 106.86L203.07 124.61ZM248.32 98.03C248.07 93.09 244.59 89.02 239.74 89.02C234.65 89.02 231.26 92.67 230.41 98.03H248.32ZM230.41 106.09C230.66 112.11 234.14 116.11 240.27 116.11C243.73 116.11 247.12 114.51 248.51 111.28H262C259.37 121.49 249.93 125.88 240.08 125.88C225.75 125.88 215.96 117.24 215.96 102.46C215.96 88.93 226.77 79.24 239.74 79.24C255.53 79.24 263.44 91.15 262.76 106.08H230.41V106.09ZM280.16 115C278.69 113.91 277.79 112.3 277.79 110.06V110.05H264.01C264.43 122.4 275.13 125.87 285.59 125.87C295.54 125.87 306.74 121.98 306.74 110.16C306.74 106.5 304.43 100.05 295.54 98.25C294.27 97.9765 292.889 97.7275 291.487 97.4746C285.555 96.4049 279.23 95.2644 279.23 91.9C279.23 88.84 283.03 88.56 285.42 88.56C287.21 88.56 288.79 88.92 290 89.67C291.2 90.46 291.86 91.64 291.86 93.53H305.21C304.68 82.05 294.6 79.23 284.91 79.23C276.25 79.23 264.78 82.15 264.78 92.76C264.78 102.813 272.963 104.539 281.007 106.236C282.445 106.539 283.879 106.841 285.26 107.19C285.546 107.259 285.858 107.327 286.186 107.399C288.755 107.96 292.31 108.737 292.31 111.85C292.31 115.36 288.31 116.54 285.51 116.54C283.46 116.54 281.51 116.02 280.16 115Z" fill="var(--colour-wickes-white)"/>
    </g>
</svg>
