<svg width="580" height="580" viewBox="0 0 580 580" fill="none" xmlns="http://www.w3.org/2000/svg">
    <path d="M468.53 5.04004C461.7 23.73 452.02 41.06 440 56.49C436.36 61.17 432.5 65.68 428.45 70C424.41 74.29 420.18 78.4 415.76 82.31C410.74 86.76 405.47 90.94 400 94.84C399.38 95.28 398.76 95.71 398.14 96.14C391.74 100.59 385.05 104.66 378.11 108.3C372.61 111.2 366.94 113.83 361.14 116.18C360.76 116.34 360.38 116.49 360 116.64C347.28 121.7 333.89 125.42 320 127.63C311.73 128.95 303.29 129.73 294.7 129.94C294.33 129.94 293.96 129.95 293.59 129.96C292.4 129.97 291.2 130 290 130C289.13 130 288.26 129.99 287.4 129.98H287.36C262.57 129.75 238.32 126.2 215.1 119.53C216.32 118.38 217.58 117.26 218.86 116.18C237.46 100.37 261.35 90.62 287.47 90.03C288.31 90.01 289.16 90 290 90C300.12 90 310.13 89.35 320 88.07C333.66 86.31 347.03 83.33 360 79.21C364.23 77.87 368.41 76.4 372.55 74.81C377.46 72.92 382.3 70.87 387.06 68.65C391.44 66.61 395.76 64.43 400 62.11C404.21 59.81 408.36 57.38 412.43 54.81C422.05 48.73 431.27 41.91 440 34.36C444.33 30.63 448.54 26.72 452.63 22.63C458.26 17 463.57 11.13 468.53 5.04004Z" fill="var(--colour-gy-black)"/>
    <path d="M400 149.9V380C400 386.28 399.47 392.44 398.45 398.44C398.45 398.45 398.44 398.45 398.44 398.45C393.95 424.99 379.92 448.31 360 464.78C348.42 474.36 334.85 481.62 320 485.84C310.47 488.55 300.4 490 290 490C289.61 490 289.22 489.99 288.84 489.98C288.64 489.98 288.45 489.98 288.26 489.97C288.06 489.97 287.86 489.97 287.67 489.96C287.43 489.96 287.19 489.95 286.95 489.95H286.93C286.1 489.93 285.28 489.9 284.45 489.85H284.41C282.78 489.77 281.16 489.65 279.54 489.5C277.18 489.28 274.84 488.98 272.52 488.61C272.45 488.59 272.37 488.58 272.29 488.57C270.75 488.32 269.21 488.03 267.68 487.72C267.6 487.7 267.52 487.68 267.44 487.67C264.34 487.02 261.28 486.24 258.27 485.33C257.51 485.1 256.75 484.86 256 484.62C255.25 484.37 254.5 484.12 253.75 483.86C253.71 483.84 253.67 483.83 253.63 483.82C252.18 483.31 250.75 482.77 249.33 482.2C248.59 481.91 247.87 481.61 247.15 481.3C246.55 481.05 245.95 480.79 245.36 480.52C244.52 480.15 243.68 479.76 242.86 479.37C242.23 479.07 241.6 478.77 240.98 478.45C238.1 477.02 235.3 475.46 232.58 473.79C231.25 472.97 229.95 472.13 228.66 471.26C228.1 470.88 227.54 470.5 226.99 470.11C226.2 469.56 225.43 469 224.66 468.44C224.1 468.02 223.55 467.6 223 467.18C222.43 466.74 221.87 466.3 221.32 465.86C221.23 465.79 221.15 465.73 221.08 465.67C220.56 465.25 220.04 464.82 219.53 464.39C219.45 464.32 219.36 464.25 219.28 464.18C218.84 463.81 218.4 463.43 217.96 463.05C216.29 461.61 214.68 460.12 213.11 458.58C212.71 458.19 212.31 457.8 211.92 457.4C211.79 457.28 211.67 457.15 211.55 457.02C211.16 456.64 210.79 456.25 210.42 455.85C209.17 454.55 207.96 453.22 206.8 451.86C206.47 451.49 206.15 451.12 205.83 450.74C205.46 450.3 205.08 449.85 204.72 449.39C203.88 448.37 203.06 447.33 202.26 446.27C201.87 445.75 201.48 445.22 201.1 444.7C201.06 444.66 201.03 444.61 200.99 444.56C200.54 443.94 200.1 443.31 199.66 442.68C199.21 442.03 198.76 441.38 198.33 440.72C197.96 440.17 197.6 439.62 197.25 439.07C197.15 438.91 197.05 438.76 196.95 438.6C196.55 437.97 196.16 437.34 195.78 436.7C195.46 436.17 195.14 435.63 194.83 435.09C194.69 434.87 194.56 434.64 194.44 434.42C194.09 433.81 193.74 433.19 193.41 432.57C193.14 432.08 192.87 431.59 192.61 431.09C192.43 430.77 192.26 430.44 192.1 430.11C191.8 429.52 191.5 428.93 191.21 428.33C190.55 426.99 189.92 425.63 189.31 424.26C188.94 423.44 188.59 422.61 188.25 421.78C187.95 421.04 187.65 420.29 187.36 419.54C187.07 418.79 186.79 418.04 186.52 417.29C186.31 416.71 186.11 416.14 185.92 415.56C185.32 413.85 184.78 412.12 184.28 410.38C184.05 409.6 183.84 408.82 183.63 408.03C183.61 407.97 183.6 407.91 183.58 407.85C183.19 406.37 182.84 404.87 182.51 403.36C182.16 401.74 181.84 400.1 181.56 398.45C181.56 398.45 181.55 398.45 181.55 398.44C180.53 392.44 180 386.28 180 380C180 371.97 180.87 364.14 182.52 356.59C185.49 342.9 191.03 330.15 198.61 318.87C209.17 327.02 220.85 333.78 233.36 338.91C225.57 349.62 220.74 362.61 220.08 376.67C220.03 377.77 220 378.88 220 380C220 418.6 251.4 450 290 450C300.73 450 310.91 447.57 320 443.24C343.63 431.98 360 407.87 360 380V284.78C357.79 286.61 355.51 288.36 353.15 290C343.19 297.03 332.01 302.43 320 305.84C310.46 308.55 300.4 310 290 310C266.52 310 244.73 302.6 226.85 290C215.75 282.21 206.16 272.41 198.61 261.13C192.56 252.13 187.82 242.21 184.64 231.61C183.59 228.14 182.71 224.6 182.02 220.99C180.69 214.19 180 207.18 180 200C180 195.63 180.26 191.31 180.77 187.07C181.74 178.67 183.69 170.55 186.47 162.83C187.6 159.69 188.87 156.61 190.29 153.6C192.57 154.38 194.86 155.13 197.16 155.85C207.92 159.24 218.83 162.01 229.88 164.18C225.53 171.44 222.47 179.56 221 188.21C220.34 192.05 220 195.98 220 200C220 200.3 220 200.6 220.01 200.89C220.19 215.89 225.12 229.77 233.36 241.09C234.45 242.6 235.6 244.06 236.82 245.47C249.67 260.48 268.74 270 290 270C300.73 270 310.91 267.57 320 263.24C328.93 258.99 336.82 252.9 343.18 245.47C344.4 244.06 345.55 242.6 346.64 241.09C354.88 229.77 359.81 215.89 359.99 200.89H360V162.07C367.69 160.3 375.3 158.22 382.84 155.85C385.14 155.13 387.43 154.38 389.71 153.6C393.16 152.43 396.59 151.2 400 149.9Z" fill="var(--colour-gy-black)"/>
</svg>